<?xml version="1.0" encoding="UTF-8"?>
<!DOCTYPE svg PUBLIC "-//W3C//DTD SVG 1.0//EN" "http://www.w3.org/TR/2001/REC-SVG-20010904/DTD/svg10.dtd">
<!-- Creator: CorelDRAW -->
<svg xmlns="http://www.w3.org/2000/svg" xml:space="preserve" width="84.6666mm" height="84.6666mm" version="1.0" shape-rendering="geometricPrecision" text-rendering="geometricPrecision" image-rendering="optimizeQuality" fill-rule="evenodd" clip-rule="evenodd"
viewBox="0 0 8467 8467"
 xmlns:xlink="http://www.w3.org/1999/xlink"
 xmlns:xodm="http://www.corel.com/coreldraw/odm/2003">
 <defs>
    <linearGradient id="id0" gradientUnits="userSpaceOnUse" x1="516" y1="4232" x2="7950" y2="4232">
     <stop offset="0" stop-opacity="1" stop-color="#2B66C5"/>
     <stop offset="1" stop-opacity="1" stop-color="#89ACE5"/>
    </linearGradient>
 </defs>
 <g id="Capa_x0020_1">
  <metadata id="CorelCorpID_0Corel-Layer"/>
  <g id="_2747820130016">
   <path fill="url(#id0)" d="M4463 339l1627 880c543,291 1079,562 1628,873 146,83 228,220 228,380l0 1761c2,586 20,1156 7,1758 -3,160 -89,295 -237,375l-1627 880c-541,295 -1059,595 -1621,885 -149,77 -317,75 -465,-4l-1627 -880c-543,-291 -1079,-562 -1628,-873 -146,-83 -228,-220 -228,-379l0 -1761c-2,-586 -20,-1156 -7,-1758 3,-160 89,-295 237,-375l1627 -880c541,-295 1059,-595 1621,-885 149,-77 317,-75 465,4z"/>
   <g>
    <path fill="white" d="M1917 4895c-11,-20 -22,-42 -26,-71 -4,-29 0,-66 7,-93 7,-27 18,-46 51,-84 33,-38 87,-97 146,-148 58,-51 120,-95 188,-133 67,-38 140,-71 202,-95 62,-24 113,-38 171,-47 58,-9 124,-13 202,-9 78,4 169,15 259,40 89,25 177,66 251,109 75,44 137,91 208,151 71,60 151,133 204,180 53,47 78,69 117,95 38,25 89,55 138,75 49,20 97,31 149,35 53,4 111,0 166,-11 55,-11 106,-29 155,-53 49,-24 97,-53 151,-95 55,-42 117,-97 175,-148 58,-51 113,-98 166,-138 53,-40 104,-73 168,-106 64,-33 140,-66 204,-89 64,-24 115,-38 178,-47 64,-9 140,-13 215,-7 75,5 148,20 213,44 66,24 124,56 186,97 62,40 127,87 182,135 55,47 98,95 133,138 35,44 60,84 71,122 11,38 7,75 -2,106 -9,31 -24,56 -44,80 -20,24 -46,46 -76,58 -31,13 -67,16 -100,15 -33,-2 -62,-9 -97,-31 -35,-22 -75,-58 -109,-95 -35,-36 -64,-73 -102,-104 -38,-31 -86,-56 -133,-76 -47,-20 -95,-35 -144,-42 -49,-7 -100,-7 -157,4 -56,11 -118,33 -178,62 -60,29 -118,66 -175,107 -56,42 -111,89 -164,137 -53,47 -104,95 -175,144 -71,49 -162,100 -244,138 -82,38 -155,64 -233,80 -78,16 -162,24 -253,16 -91,-7 -189,-29 -268,-55 -78,-26 -137,-55 -197,-93 -60,-38 -122,-86 -184,-140 -62,-55 -124,-117 -175,-166 -51,-49 -91,-86 -137,-117 -46,-31 -97,-56 -142,-75 -46,-18 -86,-29 -131,-36 -46,-7 -97,-11 -149,-9 -53,2 -107,9 -164,31 -56,22 -115,58 -168,97 -53,38 -100,78 -138,113 -38,35 -67,64 -97,84 -29,20 -58,31 -87,35 -29,4 -58,0 -87,-11 -29,-11 -58,-29 -78,-47 -20,-18 -31,-36 -42,-56z"/>
    <path fill="white" d="M1684 3814c-12,-20 -24,-42 -28,-71 -4,-29 0,-66 8,-93 8,-27 20,-46 56,-84 36,-38 97,-97 161,-148 64,-51 133,-95 207,-133 75,-38 155,-71 224,-95 68,-24 125,-38 189,-47 64,-9 137,-13 224,-9 87,4 187,15 286,40 99,25 195,66 278,109 83,44 151,91 230,151 79,60 167,133 226,180 58,47 87,69 129,95 42,25 99,55 153,75 54,20 107,31 165,35 58,4 123,0 183,-11 60,-11 117,-29 171,-53 54,-24 107,-53 167,-95 60,-42 129,-97 193,-148 64,-51 125,-98 183,-138 58,-40 115,-73 185,-106 71,-33 155,-66 226,-89 71,-24 127,-38 197,-47 71,-9 155,-13 238,-7 83,5 163,20 236,44 73,24 137,56 205,97 68,40 141,87 201,135 60,47 109,95 147,138 38,44 66,84 79,122 12,38 8,75 -2,106 -10,31 -26,56 -48,80 -22,24 -50,46 -85,58 -34,13 -75,16 -111,15 -36,-2 -68,-9 -107,-31 -38,-22 -83,-58 -121,-95 -38,-36 -70,-73 -113,-104 -42,-31 -95,-56 -147,-76 -52,-20 -105,-35 -159,-42 -54,-7 -111,-7 -173,4 -62,11 -131,33 -197,62 -66,29 -131,66 -193,107 -62,42 -123,89 -181,137 -58,47 -115,95 -193,144 -79,49 -179,100 -270,138 -91,38 -171,64 -258,80 -87,16 -179,24 -280,16 -101,-7 -209,-29 -296,-55 -87,-26 -151,-55 -218,-93 -66,-38 -135,-86 -203,-140 -68,-55 -137,-117 -193,-166 -56,-49 -101,-86 -151,-117 -50,-31 -107,-56 -157,-75 -50,-18 -95,-29 -145,-36 -50,-7 -107,-11 -165,-9 -58,2 -119,9 -181,31 -62,22 -127,58 -185,97 -58,38 -111,78 -153,113 -42,35 -75,64 -107,84 -32,20 -64,31 -97,35 -32,4 -64,0 -97,-11 -32,-11 -64,-29 -87,-47 -22,-18 -34,-36 -46,-56z"/>
   </g>
  </g>
 </g>
</svg>
