<?xml version="1.0" encoding="UTF-8"?>
<!DOCTYPE svg PUBLIC "-//W3C//DTD SVG 1.0//EN" "http://www.w3.org/TR/2001/REC-SVG-20010904/DTD/svg10.dtd">
<!-- Creator: CorelDRAW -->
<svg xmlns="http://www.w3.org/2000/svg" xml:space="preserve" width="113.83mm" height="32.147mm" version="1.0" shape-rendering="geometricPrecision" text-rendering="geometricPrecision" image-rendering="optimizeQuality" fill-rule="evenodd" clip-rule="evenodd"
viewBox="0 0 11383 3215"
 xmlns:xlink="http://www.w3.org/1999/xlink"
 xmlns:xodm="http://www.corel.com/coreldraw/odm/2003">
 <defs>
    <linearGradient id="id0" gradientUnits="userSpaceOnUse" x1="64" y1="1582" x2="2932" y2="1582">
     <stop offset="0" stop-opacity="1" stop-color="#2B66C5"/>
     <stop offset="1" stop-opacity="1" stop-color="#89ACE5"/>
    </linearGradient>
 </defs>
 <g id="Capa_x0020_1">
  <metadata id="CorelCorpID_0Corel-Layer"/>
  <g id="_1817677870560">
   <path fill="black" fill-rule="nonzero" d="M4090 1677c0,52 -10,98 -29,138 -20,39 -46,72 -79,99 -34,26 -72,46 -117,59 -45,13 -92,20 -143,20 -34,0 -66,-3 -96,-9 -29,-6 -55,-13 -78,-21 -23,-8 -41,-16 -57,-25 -15,-9 -26,-17 -33,-23 -7,-7 -11,-17 -14,-29 -3,-13 -4,-30 -4,-54 0,-16 1,-29 2,-40 1,-11 3,-19 5,-26 2,-7 6,-11 9,-14 4,-3 8,-4 14,-4 7,0 17,4 30,13 13,8 30,18 50,28 20,10 45,20 74,28 28,9 61,13 99,13 25,0 47,-3 66,-9 20,-6 36,-14 50,-25 14,-11 24,-24 31,-40 7,-16 11,-33 11,-53 0,-23 -6,-42 -18,-58 -12,-16 -28,-30 -48,-43 -20,-13 -42,-24 -67,-35 -25,-11 -51,-23 -78,-35 -27,-12 -53,-26 -78,-42 -25,-15 -48,-34 -67,-56 -20,-22 -36,-47 -48,-77 -12,-30 -18,-65 -18,-107 0,-47 9,-89 26,-125 18,-36 41,-66 71,-90 30,-24 65,-42 106,-53 41,-12 84,-18 129,-18 23,0 47,2 70,6 24,3 46,8 66,14 20,6 39,13 54,21 16,8 26,14 31,19 5,5 8,9 10,13 2,4 3,8 5,14 1,6 2,13 3,22 1,9 1,20 1,33 0,15 0,27 -1,37 -1,10 -2,19 -4,25 -2,7 -4,12 -8,14 -3,3 -8,5 -14,5 -6,0 -14,-4 -27,-11 -12,-7 -28,-15 -45,-24 -18,-8 -39,-16 -62,-23 -24,-7 -49,-10 -78,-10 -22,0 -41,3 -58,8 -16,5 -30,13 -41,22 -11,9 -19,21 -25,34 -6,13 -8,28 -8,42 0,22 6,41 18,57 12,16 28,31 48,43 20,12 43,24 69,35 25,11 52,23 78,35 27,12 53,26 78,42 26,16 48,34 69,56 20,22 36,47 48,77 12,29 18,64 18,104z"/>
   <path id="_1" fill="black" fill-rule="nonzero" d="M4925 1600c0,58 -8,111 -23,160 -15,48 -39,89 -70,124 -31,35 -70,62 -117,81 -47,19 -102,28 -165,28 -61,0 -114,-8 -159,-25 -45,-17 -83,-41 -112,-74 -30,-32 -52,-72 -66,-119 -14,-47 -21,-101 -21,-161 0,-58 8,-112 23,-160 16,-48 39,-90 70,-124 31,-34 70,-61 117,-80 47,-19 102,-28 165,-28 62,0 115,8 160,25 45,17 82,41 112,73 30,32 51,72 66,119 14,47 21,101 21,162zm-198 8c0,-34 -3,-65 -8,-93 -6,-29 -14,-53 -28,-74 -13,-21 -30,-37 -51,-49 -21,-12 -48,-18 -81,-18 -29,0 -54,5 -76,16 -21,10 -39,26 -53,46 -14,20 -24,45 -31,73 -7,29 -10,61 -10,97 0,34 3,65 8,93 6,29 15,53 28,74 13,21 30,37 51,49 21,12 48,17 80,17 29,0 55,-5 77,-16 21,-10 39,-26 53,-46 14,-20 24,-44 31,-73 7,-29 10,-61 10,-97z"/>
   <path id="_2" fill="black" fill-rule="nonzero" d="M5727 1949c0,6 -1,10 -4,14 -2,4 -7,7 -13,10 -6,2 -15,4 -25,5 -10,1 -23,2 -39,2 -17,0 -30,-1 -40,-2 -10,-1 -18,-3 -25,-5 -6,-3 -11,-6 -14,-10 -3,-4 -4,-9 -4,-14l0 -76c-35,38 -72,67 -111,88 -39,21 -81,31 -129,31 -52,0 -96,-10 -132,-30 -36,-20 -65,-47 -88,-82 -23,-34 -39,-74 -50,-120 -10,-46 -15,-94 -15,-145 0,-61 7,-116 20,-164 13,-48 32,-90 57,-124 25,-34 56,-61 94,-79 37,-18 80,-28 129,-28 38,0 73,8 104,23 31,16 62,39 93,69l0 -370c0,-5 1,-10 4,-14 3,-4 8,-8 15,-10 7,-3 17,-5 29,-7 12,-2 28,-2 47,-2 19,0 35,1 47,2 12,2 22,4 29,7 7,3 12,6 15,10 3,4 5,9 5,14l0 1007zm-192 -458c-28,-35 -54,-61 -79,-80 -25,-18 -52,-28 -80,-28 -25,0 -47,6 -65,19 -18,13 -33,29 -44,50 -11,21 -19,45 -25,70 -6,26 -8,52 -8,79 0,29 2,57 7,84 5,27 12,51 23,73 10,21 24,38 42,51 17,13 39,19 66,19 13,0 26,-2 39,-6 13,-4 25,-10 38,-19 13,-9 26,-20 40,-34 14,-14 29,-31 45,-52l0 -227z"/>
   <path id="_3" fill="black" fill-rule="nonzero" d="M6505 1951c0,7 -3,13 -8,17 -5,4 -13,7 -24,9 -11,2 -27,3 -49,3 -23,0 -40,-1 -50,-3 -10,-2 -18,-5 -22,-9 -4,-4 -7,-10 -7,-17l0 -54c-28,30 -60,53 -96,70 -36,17 -76,25 -120,25 -36,0 -70,-5 -100,-14 -30,-9 -57,-24 -79,-42 -22,-19 -40,-42 -52,-69 -12,-28 -18,-60 -18,-97 0,-40 8,-75 23,-104 16,-30 39,-54 70,-73 31,-19 69,-33 115,-42 46,-9 99,-14 160,-14l67 0 0 -41c0,-21 -2,-40 -7,-57 -4,-16 -12,-30 -21,-40 -10,-11 -23,-19 -40,-24 -17,-5 -37,-8 -62,-8 -32,0 -61,4 -86,11 -25,7 -48,15 -67,24 -19,9 -36,17 -49,24 -13,7 -24,11 -32,11 -6,0 -11,-2 -15,-5 -4,-4 -8,-9 -11,-15 -3,-7 -5,-15 -7,-25 -2,-10 -2,-20 -2,-32 0,-16 1,-29 4,-38 2,-9 7,-17 14,-25 7,-7 20,-15 38,-24 18,-9 39,-17 63,-25 24,-8 50,-14 79,-19 29,-5 58,-7 88,-7 54,0 100,5 138,16 38,10 69,27 94,48 25,22 43,50 54,84 11,34 17,75 17,122l0 461zm-190 -294l-74 0c-31,0 -58,2 -80,7 -22,5 -40,12 -54,21 -14,9 -24,20 -30,33 -7,13 -10,28 -10,45 0,29 9,51 27,68 18,17 43,25 75,25 27,0 52,-7 75,-21 23,-14 46,-34 69,-61l0 -117z"/>
   <path id="_4" fill="black" fill-rule="nonzero" d="M7449 1975l-83 242c-5,13 -17,22 -37,28 -20,6 -50,8 -90,8 -20,0 -37,-1 -49,-3 -12,-2 -21,-5 -28,-9 -6,-4 -9,-9 -10,-15 -1,-6 1,-14 5,-22l91 -229c-7,-3 -13,-8 -18,-14 -6,-7 -9,-13 -12,-20l-235 -630c-7,-18 -10,-32 -10,-41 0,-9 3,-17 9,-22 6,-5 17,-9 31,-11 15,-2 34,-3 58,-3 22,0 39,0 52,1 13,1 23,3 30,6 7,3 13,8 16,14 4,6 7,15 11,27l161 458 2 0 146 -468c3,-13 7,-22 12,-27 5,-4 13,-7 24,-9 11,-2 31,-3 59,-3 22,0 41,1 55,3 15,2 25,6 32,12 7,6 10,13 10,23 0,9 -2,21 -6,34l-227 671z"/>
   <path id="_5" fill="black" fill-rule="nonzero" d="M8977 1900c6,18 10,33 12,44 2,11 -1,19 -6,24 -6,5 -16,9 -30,10 -14,1 -34,2 -59,2 -26,0 -47,0 -61,-1 -15,-1 -26,-2 -34,-5 -8,-2 -13,-6 -16,-10 -3,-4 -6,-9 -8,-16l-65 -200 -375 0 -63 194c-2,7 -5,13 -8,18 -3,5 -9,9 -16,12 -7,3 -18,5 -31,6 -14,1 -31,2 -53,2 -24,0 -42,-1 -55,-2 -13,-2 -23,-5 -28,-11 -5,-6 -7,-14 -6,-25 2,-11 6,-25 12,-43l306 -882c3,-9 7,-16 11,-21 4,-6 10,-9 19,-12 9,-3 21,-5 37,-6 16,-1 37,-1 63,-1 30,0 54,0 72,1 18,1 32,3 42,6 10,3 17,7 21,13 4,6 8,13 11,23l307 881zm-456 -729l-1 0 -138 423 279 0 -140 -423z"/>
   <path id="_6" fill="black" fill-rule="nonzero" d="M9722 1312c0,25 -3,43 -9,54 -6,12 -12,18 -21,18l-80 0c11,12 19,26 24,42 5,16 7,32 7,49 0,40 -7,75 -20,106 -13,31 -32,57 -57,78 -25,21 -55,37 -90,48 -35,11 -74,17 -117,17 -22,0 -43,-3 -63,-8 -20,-5 -35,-12 -46,-19 -6,7 -12,14 -17,24 -5,9 -7,19 -7,31 0,15 7,27 20,37 13,9 31,15 55,16l167 6c39,2 74,7 104,17 30,9 56,23 77,40 21,17 37,38 48,62 11,24 17,52 17,82 0,34 -8,65 -22,95 -15,30 -37,56 -67,78 -30,22 -67,39 -112,52 -45,13 -97,19 -157,19 -58,0 -108,-5 -149,-14 -41,-9 -75,-22 -101,-38 -26,-17 -46,-36 -58,-59 -12,-23 -18,-48 -18,-75 0,-17 2,-33 7,-48 4,-15 11,-30 19,-44 8,-14 19,-28 31,-40 12,-13 26,-25 42,-37 -22,-12 -39,-28 -51,-48 -12,-20 -18,-42 -18,-67 0,-30 7,-58 21,-83 14,-25 32,-47 54,-67 -18,-18 -32,-39 -43,-64 -11,-25 -16,-56 -16,-94 0,-40 7,-76 21,-107 14,-31 34,-58 59,-80 25,-22 55,-38 90,-50 35,-12 73,-17 115,-17 21,0 42,1 62,4 20,3 38,6 55,10l217 0c9,0 16,6 21,17 5,11 8,30 8,57zm-248 162c0,-37 -10,-65 -31,-86 -20,-20 -49,-31 -87,-31 -19,0 -36,3 -50,10 -14,6 -26,15 -36,26 -9,11 -17,24 -21,39 -5,15 -7,30 -7,46 0,35 10,62 31,83 20,20 49,30 85,30 19,0 36,-3 51,-9 14,-6 26,-15 36,-25 10,-11 17,-23 22,-37 5,-14 7,-29 7,-44zm45 546c0,-23 -9,-41 -28,-53 -19,-12 -44,-19 -76,-20l-138 -4c-13,10 -24,19 -32,28 -8,9 -14,17 -19,26 -5,8 -8,16 -9,24 -2,8 -2,16 -2,24 0,25 13,45 39,58 26,13 62,20 109,20 29,0 54,-3 74,-9 20,-6 36,-14 48,-23 12,-10 21,-20 26,-32 5,-12 8,-25 8,-38z"/>
   <path id="_7" fill="black" fill-rule="nonzero" d="M10500 1949c0,5 -1,9 -4,13 -2,4 -7,7 -13,10 -6,2 -15,4 -25,6 -10,1 -24,2 -39,2 -17,0 -31,-1 -41,-2 -10,-1 -19,-3 -25,-6 -6,-3 -10,-6 -13,-10 -3,-4 -4,-8 -4,-13l0 -79c-38,41 -76,71 -116,92 -39,20 -80,31 -122,31 -47,0 -87,-8 -119,-23 -32,-15 -58,-36 -78,-63 -20,-27 -34,-57 -42,-92 -8,-35 -13,-79 -13,-131l0 -419c0,-5 1,-9 4,-13 3,-4 8,-7 15,-10 7,-2 18,-4 30,-6 13,-1 28,-2 47,-2 19,0 35,1 47,2 12,1 22,3 30,6 8,3 13,6 16,10 3,4 5,8 5,13l0 387c0,36 2,63 7,82 5,19 12,35 21,49 9,14 21,24 36,32 14,7 31,11 51,11 25,0 49,-9 74,-27 25,-18 51,-44 79,-78l0 -456c0,-5 1,-9 4,-13 3,-4 8,-7 15,-10 7,-2 17,-4 29,-6 12,-1 28,-2 47,-2 19,0 35,1 47,2 12,1 22,3 29,6 7,3 12,6 15,10 3,4 5,8 5,13l0 685z"/>
   <path id="_8" fill="black" fill-rule="nonzero" d="M11277 1951c0,7 -3,13 -8,17 -5,4 -13,7 -24,9 -11,2 -27,3 -49,3 -23,0 -40,-1 -50,-3 -10,-2 -18,-5 -22,-9 -4,-4 -7,-10 -7,-17l0 -54c-28,30 -60,53 -96,70 -36,17 -76,25 -120,25 -36,0 -70,-5 -100,-14 -30,-9 -57,-24 -79,-42 -22,-19 -40,-42 -52,-69 -12,-28 -18,-60 -18,-97 0,-40 8,-75 23,-104 16,-30 39,-54 70,-73 31,-19 69,-33 115,-42 46,-9 99,-14 160,-14l67 0 0 -41c0,-21 -2,-40 -7,-57 -4,-16 -12,-30 -21,-40 -10,-11 -23,-19 -40,-24 -17,-5 -37,-8 -62,-8 -32,0 -61,4 -86,11 -25,7 -48,15 -67,24 -19,9 -36,17 -49,24 -13,7 -24,11 -32,11 -6,0 -11,-2 -15,-5 -4,-4 -8,-9 -11,-15 -3,-7 -5,-15 -7,-25 -2,-10 -2,-20 -2,-32 0,-16 1,-29 4,-38 2,-9 7,-17 14,-25 7,-7 20,-15 38,-24 18,-9 39,-17 63,-25 24,-8 50,-14 79,-19 29,-5 58,-7 88,-7 54,0 100,5 138,16 38,10 69,27 94,48 25,22 43,50 54,84 11,34 17,75 17,122l0 461zm-190 -294l-74 0c-31,0 -58,2 -80,7 -22,5 -40,12 -54,21 -14,9 -24,20 -30,33 -7,13 -10,28 -10,45 0,29 9,51 27,68 18,17 43,25 75,25 27,0 52,-7 75,-21 23,-14 46,-34 69,-61l0 -117z"/>
   <path fill="url(#id0)" d="M1586 83l627 339c209,112 415,216 627,336 56,32 88,85 88,146l0 678c1,226 8,445 3,677 -1,61 -34,114 -91,144l-627 339c-208,114 -408,229 -624,341 -57,30 -122,29 -179,-2l-627 -339c-209,-112 -415,-216 -627,-336 -56,-32 -88,-85 -88,-146l0 -678c-1,-226 -8,-445 -3,-677 1,-61 34,-114 91,-144l627 -339c208,-114 408,-229 624,-341 57,-30 122,-29 179,2z"/>
   <g>
    <path fill="white" d="M606 1837c-4,-8 -8,-16 -10,-27 -1,-11 0,-25 3,-36 3,-11 7,-18 20,-32 13,-15 34,-37 56,-57 22,-20 46,-36 72,-51 26,-15 54,-27 78,-36 24,-9 43,-15 66,-18 22,-4 48,-5 78,-4 30,1 65,6 100,15 34,10 68,25 97,42 29,17 53,35 80,58 27,23 58,51 79,69 20,18 30,27 45,36 15,10 34,21 53,29 19,8 37,12 57,13 20,1 43,0 64,-4 21,-4 41,-11 60,-20 19,-9 37,-20 58,-36 21,-16 45,-37 67,-57 22,-20 43,-38 64,-53 20,-15 40,-28 65,-41 25,-13 54,-25 79,-34 25,-9 44,-15 69,-18 25,-4 54,-5 83,-3 29,2 57,8 82,17 25,9 48,22 72,37 24,15 49,34 70,52 21,18 38,36 51,53 13,17 23,32 27,47 4,15 3,29 -1,41 -4,12 -9,22 -17,31 -8,9 -18,18 -29,22 -12,5 -26,6 -39,6 -13,-1 -24,-4 -37,-12 -13,-8 -29,-22 -42,-36 -13,-14 -25,-28 -39,-40 -15,-12 -33,-22 -51,-29 -18,-8 -36,-13 -55,-16 -19,-3 -39,-3 -60,1 -22,4 -46,13 -69,24 -23,11 -46,25 -67,41 -22,16 -43,34 -63,53 -20,18 -40,36 -67,55 -27,19 -62,39 -94,53 -32,15 -60,25 -90,31 -30,6 -62,9 -97,6 -35,-3 -73,-11 -103,-21 -30,-10 -53,-21 -76,-36 -23,-15 -47,-33 -71,-54 -24,-21 -48,-45 -67,-64 -20,-19 -35,-33 -53,-45 -18,-12 -37,-22 -55,-29 -18,-7 -33,-11 -50,-14 -18,-3 -37,-4 -57,-4 -20,1 -41,4 -63,12 -22,8 -44,22 -65,37 -20,15 -39,30 -53,43 -15,13 -26,25 -37,32 -11,8 -22,12 -34,13 -11,1 -22,0 -34,-4 -11,-4 -22,-11 -30,-18 -8,-7 -12,-14 -16,-22z"/>
    <path fill="white" d="M516 1420c-5,-8 -9,-16 -11,-27 -2,-11 0,-25 3,-36 3,-11 8,-18 22,-32 14,-15 37,-37 62,-57 25,-20 51,-36 80,-51 29,-15 60,-27 86,-36 26,-9 48,-15 73,-18 25,-4 53,-5 86,-4 33,1 72,6 110,15 38,10 75,25 107,42 32,17 58,35 88,58 30,23 64,51 87,69 23,18 33,27 50,36 16,10 38,21 59,29 21,8 41,12 64,13 23,1 47,0 71,-4 23,-4 45,-11 66,-20 21,-9 41,-20 64,-36 23,-16 50,-37 74,-57 25,-20 48,-38 71,-53 22,-15 44,-28 71,-41 27,-13 60,-25 87,-34 27,-9 49,-15 76,-18 27,-4 60,-5 92,-3 32,2 63,8 91,17 28,9 53,22 79,37 26,15 54,34 78,52 23,18 42,36 57,53 15,17 26,32 30,47 5,15 3,29 -1,41 -4,12 -10,22 -19,31 -9,9 -19,18 -33,22 -13,5 -29,6 -43,6 -14,-1 -26,-4 -41,-12 -15,-8 -32,-22 -47,-36 -15,-14 -27,-28 -43,-40 -16,-12 -36,-22 -57,-29 -20,-8 -40,-13 -61,-16 -21,-3 -43,-3 -67,1 -24,4 -50,13 -76,24 -26,11 -50,25 -74,41 -24,16 -47,34 -70,53 -22,18 -44,36 -74,55 -30,19 -69,39 -104,53 -35,15 -66,25 -99,31 -33,6 -69,9 -108,6 -39,-3 -81,-11 -114,-21 -33,-10 -58,-21 -84,-36 -26,-15 -52,-33 -78,-54 -26,-21 -53,-45 -74,-64 -22,-19 -39,-33 -58,-45 -19,-12 -41,-22 -61,-29 -19,-7 -36,-11 -56,-14 -19,-3 -41,-4 -64,-4 -22,1 -46,4 -70,12 -24,8 -49,22 -71,37 -22,15 -43,30 -59,43 -16,13 -29,25 -41,32 -12,8 -25,12 -37,13 -12,1 -25,0 -37,-4 -12,-4 -25,-11 -33,-18 -9,-7 -13,-14 -18,-22z"/>
   </g>
  </g>
 </g>
</svg>
