<?xml version="1.0" encoding="UTF-8"?>
<!DOCTYPE svg PUBLIC "-//W3C//DTD SVG 1.1//EN" "http://www.w3.org/Graphics/SVG/1.1/DTD/svg11.dtd">
<!-- Creator: CorelDRAW -->
<svg xmlns="http://www.w3.org/2000/svg" xml:space="preserve" width="109.75mm" height="34.448mm" version="1.1" style="shape-rendering:geometricPrecision; text-rendering:geometricPrecision; image-rendering:optimizeQuality; fill-rule:evenodd; clip-rule:evenodd"
viewBox="0 0 10975 3444.8"
 xmlns:xlink="http://www.w3.org/1999/xlink"
 xmlns:xodm="http://www.corel.com/coreldraw/odm/2003">
 <defs>
  <style type="text/css">
   <![CDATA[
    .fil1 {fill:white}
    .fil0 {fill:white;fill-rule:nonzero}
   ]]>
  </style>
 </defs>
 <g id="Capa_x0020_1">
  <metadata id="CorelCorpID_0Corel-Layer"/>
  <g id="_2303624716352">
   <path class="fil0" d="M3989.1 1825.73c0,49.01 -9.07,91.66 -27.21,128.66 -18.38,36.77 -42.89,67.4 -74.01,92.16 -31.37,24.5 -67.64,43.13 -109.31,55.63 -41.66,12.5 -86.27,18.63 -133.81,18.63 -32.11,0 -61.76,-2.7 -89.46,-8.09 -27.45,-5.39 -51.71,-11.77 -72.79,-19.36 -21.07,-7.36 -38.72,-15.2 -52.93,-23.53 -14.22,-8.33 -24.27,-15.69 -30.64,-21.81 -6.13,-6.38 -10.54,-15.44 -13.23,-27.21 -2.7,-11.76 -3.92,-28.43 -3.92,-50.48 0,-14.95 0.49,-27.21 1.47,-37.26 0.98,-10.05 2.45,-18.13 4.65,-24.51 2.21,-6.12 5.15,-10.53 8.58,-13.23 3.68,-2.7 7.84,-3.92 12.74,-3.92 6.62,0 16.18,3.92 28.43,12.01 12.26,7.84 27.94,16.66 47.06,26.22 19.12,9.56 42.15,18.38 68.87,26.23 26.47,8.08 57.35,12 92.39,12 23.04,0 43.63,-2.69 61.76,-8.08 18.38,-5.64 33.83,-13.24 46.57,-23.29 12.74,-10.04 22.3,-22.3 29.16,-37 6.62,-14.71 10.05,-31.13 10.05,-49.26 0,-21.08 -5.63,-39.22 -17.15,-54.17 -11.52,-15.19 -26.47,-28.43 -45.1,-40.19 -18.38,-11.77 -39.46,-22.79 -62.98,-33.09 -23.29,-10.29 -47.55,-21.07 -72.55,-32.59 -25,-11.52 -49.26,-24.51 -72.54,-39.22 -23.53,-14.46 -44.61,-31.86 -62.99,-52.2 -18.62,-20.34 -33.57,-44.36 -45.09,-72.3 -11.52,-27.69 -17.16,-61.02 -17.16,-99.75 0,-44.36 8.33,-83.57 24.75,-117.39 16.42,-33.58 38.73,-61.52 66.67,-83.82 28.18,-22.3 61.02,-38.97 99.01,-49.99 37.99,-11.03 78.43,-16.43 121.07,-16.43 21.81,0 43.87,1.72 65.93,5.15 22.05,3.19 42.64,7.84 61.76,13.48 19.11,5.88 36.02,12.26 50.97,19.36 14.71,7.36 24.51,13.24 29.41,18.14 4.66,4.66 7.85,8.82 9.56,12.01 1.72,3.43 3.19,7.84 4.41,13.48 1.23,5.39 1.96,12.25 2.45,20.83 0.49,8.33 0.74,18.63 0.74,31.12 0,13.73 -0.25,25.49 -0.98,35.05 -0.74,9.56 -1.96,17.4 -3.68,23.77 -1.71,6.13 -4.16,10.79 -7.1,13.48 -3.19,2.94 -7.36,4.41 -12.75,4.41 -5.15,0 -13.48,-3.43 -25,-10.04 -11.52,-6.62 -25.73,-13.97 -42.4,-22.06 -16.91,-7.84 -36.27,-14.95 -58.33,-21.32 -22.05,-6.62 -46.07,-9.81 -72.54,-9.81 -20.59,0 -38.48,2.45 -53.92,7.6 -15.19,4.9 -27.94,12.01 -38.23,20.83 -10.29,8.83 -18.14,19.36 -23.04,31.86 -5.14,12.5 -7.6,25.74 -7.6,39.46 0,20.59 5.64,38.48 16.91,53.43 11.28,15.2 26.47,28.67 45.35,40.44 18.87,11.52 40.43,22.55 64.45,32.84 23.77,10.29 48.28,21.32 73.28,32.6 25,11.51 49.51,24.5 73.28,39.21 24.02,14.7 45.34,32.1 64.21,52.45 18.63,20.34 33.82,44.11 45.34,71.8 11.52,27.45 17.16,59.8 17.16,97.06zm780.34 -72.3c0,54.41 -7.11,104.16 -21.57,149.25 -14.46,44.85 -36.03,83.58 -65.44,116.17 -29.16,32.6 -65.68,57.6 -109.79,75.49 -44.12,17.64 -95.59,26.47 -154.41,26.47 -57.1,0 -106.61,-7.85 -148.76,-23.78 -42.15,-15.68 -77.2,-38.72 -104.9,-68.87 -27.69,-30.14 -48.28,-67.15 -61.76,-111.26 -13.48,-43.87 -20.09,-94.11 -20.09,-150.73 0,-54.41 7.35,-104.4 21.81,-149.5 14.7,-45.34 36.52,-84.06 65.93,-116.41 29.16,-32.11 65.68,-57.11 109.55,-75 43.62,-17.64 95.09,-26.47 153.91,-26.47 57.59,0 107.34,7.85 149.5,23.29 42.15,15.68 76.95,38.48 104.4,68.62 27.7,30.15 48.04,67.15 61.52,111.27 13.48,43.87 20.1,94.35 20.1,151.46zm-185.29 7.11c0,-31.62 -2.45,-60.78 -7.59,-87.25 -5.15,-26.72 -13.48,-49.76 -25.74,-69.36 -12.01,-19.61 -27.94,-35.05 -47.79,-46.08 -20.09,-11.03 -45.09,-16.42 -75.48,-16.42 -26.96,0 -50.49,4.9 -70.83,14.71 -20.1,9.8 -36.76,24.26 -49.75,43.13 -12.99,18.87 -22.8,41.67 -29.17,68.13 -6.62,26.72 -9.8,56.86 -9.8,90.93 0,31.62 2.69,60.78 7.84,87.25 5.39,26.71 13.97,49.75 25.74,69.36 11.76,19.6 27.69,34.8 48.03,45.58 20.1,10.79 45.1,16.18 75,16.18 27.45,0 51.22,-4.9 71.56,-14.71 20.1,-9.8 36.76,-24.02 49.75,-42.64 12.99,-18.87 22.55,-41.42 28.92,-67.89 6.13,-26.71 9.31,-56.86 9.31,-90.92zm936.21 319.83c0,5.14 -1.22,9.56 -3.67,13.23 -2.21,3.68 -6.38,6.62 -12.01,9.07 -5.88,2.21 -13.73,3.92 -23.53,4.9 -9.8,0.98 -21.81,1.47 -36.03,1.47 -15.44,0 -27.94,-0.49 -37.49,-1.47 -9.56,-0.98 -17.16,-2.69 -23.29,-4.9 -5.88,-2.45 -10.29,-5.64 -12.74,-9.07 -2.7,-3.67 -4.17,-8.09 -4.17,-13.48l0 -71.32c-32.84,35.54 -67.64,62.99 -103.67,82.6 -36.27,19.6 -76.22,29.41 -120.33,29.41 -48.77,0 -90.19,-9.56 -123.77,-28.43 -33.82,-18.88 -61.27,-44.36 -82.59,-76.47 -21.32,-31.86 -36.76,-69.36 -46.32,-112.25 -9.56,-42.89 -14.46,-87.98 -14.46,-135.28 0,-56.86 6.13,-108.08 18.38,-153.67 12.25,-45.34 29.9,-84.06 53.43,-116.17 23.52,-32.1 52.69,-56.61 87.74,-74.01 34.8,-17.16 74.99,-25.74 120.58,-25.74 35.78,0 68.37,7.36 97.54,21.82 29.41,14.7 58.33,36.02 87,64.21l0 -346.3c0,-4.9 1.23,-9.07 3.92,-12.99 2.7,-3.68 7.36,-7.11 14.46,-9.56 6.87,-2.7 16.18,-4.66 27.45,-6.13 11.52,-1.47 26.23,-2.2 43.87,-2.2 17.65,0 32.35,0.73 43.87,2.2 11.28,1.47 20.59,3.43 27.21,6.13 6.61,2.45 11.52,5.88 14.21,9.56 2.94,3.92 4.41,8.09 4.41,12.99l0 941.85zm-179.4 -428.16c-25.73,-32.6 -50.73,-57.35 -74.26,-74.75 -23.77,-17.16 -48.52,-25.73 -74.5,-25.73 -23.28,0 -43.63,5.88 -60.54,17.64 -17.15,11.77 -30.63,27.21 -40.93,46.81 -10.29,19.85 -18.13,41.67 -23.03,65.68 -5.15,24.27 -7.6,49.02 -7.6,74.26 0,26.96 2.21,52.94 6.37,78.18 4.41,25.49 11.52,48.04 21.32,67.89 9.81,19.85 22.8,35.78 39.22,47.79 16.17,12.01 36.76,17.89 61.76,17.89 12.25,0 24.51,-1.71 36.27,-5.39 11.76,-3.67 23.53,-9.31 35.78,-17.64 12.26,-8.09 24.75,-18.63 37.74,-31.86 12.99,-13.24 27.21,-29.17 42.4,-48.28l0 -212.49zm906.8 430.36c0,6.62 -2.45,11.77 -7.11,15.69 -4.9,3.92 -12.49,6.62 -22.79,8.33 -10.29,1.72 -25.49,2.45 -45.83,2.45 -21.57,0 -37.25,-0.73 -47.05,-2.45 -9.81,-1.71 -16.91,-4.41 -20.84,-8.33 -4.16,-3.92 -6.12,-9.07 -6.12,-15.69l0 -50.97c-26.47,28.18 -56.37,49.99 -90.19,65.68 -33.58,15.68 -71.08,23.53 -112.25,23.53 -33.82,0 -65.19,-4.42 -93.62,-13.24 -28.43,-8.82 -52.94,-22.06 -73.77,-39.46 -20.83,-17.64 -37.01,-39.21 -48.53,-64.94 -11.52,-25.98 -17.15,-56.13 -17.15,-90.44 0,-37.5 7.35,-69.85 21.81,-97.3 14.7,-27.69 36.52,-50.24 65.44,-68.37 28.92,-17.9 64.7,-31.13 107.83,-39.71 42.89,-8.58 92.89,-12.99 149.75,-12.99l62.49 0 0 -38.72c0,-20.1 -1.96,-37.74 -6.12,-52.94 -3.93,-14.95 -10.79,-27.69 -20.1,-37.74 -9.31,-10.05 -21.57,-17.4 -37.25,-22.3 -15.44,-4.66 -34.8,-7.11 -57.6,-7.11 -30.14,0 -57.1,3.43 -80.63,10.05 -23.77,6.62 -44.6,14.21 -62.74,22.3 -18.14,8.09 -33.33,15.69 -45.59,22.3 -12.25,6.62 -22.05,10.05 -29.65,10.05 -5.39,0 -10.05,-1.71 -13.97,-4.9 -4.17,-3.43 -7.6,-8.33 -10.05,-14.46 -2.69,-6.13 -4.65,-13.97 -6.13,-23.04 -1.47,-9.07 -2.2,-19.11 -2.2,-29.9 0,-14.95 1.22,-26.71 3.68,-35.29 2.2,-8.58 6.86,-16.17 13.47,-23.28 6.87,-6.86 18.39,-14.46 35.3,-22.79 16.66,-8.34 36.27,-16.18 58.82,-23.29 22.54,-7.35 47.05,-13.23 73.52,-17.64 26.71,-4.66 54.16,-6.87 82.35,-6.87 50.24,0 93.13,4.91 128.91,14.71 35.54,9.8 64.95,25 87.74,45.34 23.04,20.34 39.95,46.57 50.49,78.67 10.54,31.86 15.68,70.09 15.68,113.96l0 431.1zm-177.93 -274.98l-68.87 0c-29.16,0 -53.91,2.21 -74.5,6.37 -20.59,4.41 -37.25,10.79 -50.24,19.61 -12.99,8.58 -22.3,18.87 -28.19,31.13 -6.12,12.25 -9.06,26.22 -9.06,41.9 0,26.96 8.57,48.04 25.48,63.24 16.92,15.44 40.44,23.03 70.59,23.03 25.24,0 48.52,-6.37 69.85,-19.36 21.32,-12.99 42.89,-31.86 64.94,-56.86l0 -109.06zm1060.96 297.04l-77.69 226.46c-4.41,12 -15.93,20.58 -35.05,25.97 -19.12,5.15 -47.05,7.85 -83.82,7.85 -19.11,0 -34.55,-0.74 -45.83,-2.45 -11.52,-1.72 -20.09,-4.42 -25.98,-8.34 -5.63,-3.92 -8.82,-8.57 -9.31,-14.21 -0.49,-5.88 0.98,-12.75 4.41,-20.83l85.29 -214.45c-6.13,-2.94 -11.76,-7.35 -16.66,-13.23 -5.15,-6.13 -8.83,-12.5 -11.28,-19.12l-219.84 -589.18c-6.12,-16.66 -9.31,-29.65 -9.31,-38.47 0,-8.83 2.94,-15.69 8.58,-20.84 5.64,-4.9 15.44,-8.33 28.92,-10.29 13.72,-1.96 31.61,-2.94 54.16,-2.94 20.34,0 36.52,0.24 48.53,0.98 12.01,0.73 21.32,2.69 27.94,5.39 6.61,2.94 11.76,7.35 14.95,13.48 3.43,5.88 6.61,14.46 10.04,25.49l150.73 428.89 2.21 0 136.75 -437.47c2.94,-12.5 6.62,-20.83 11.28,-25 4.41,-3.92 12,-6.86 22.54,-8.82 10.54,-1.96 29.17,-2.94 55.39,-2.94 20.83,0 37.99,0.98 51.47,2.94 13.72,1.96 23.77,5.39 30.39,10.78 6.37,5.15 9.56,12.26 9.56,21.08 0,8.82 -1.72,19.36 -5.64,31.37l-212.73 627.9zm1429.8 -70.34c5.64,17.16 9.32,30.88 10.79,40.93 1.47,10.05 -0.49,17.65 -5.64,22.79 -5.39,4.9 -14.71,8.09 -28.19,9.32 -13.23,1.22 -31.86,1.71 -55.14,1.71 -24.51,0 -43.62,-0.24 -57.1,-0.98 -13.73,-0.73 -24.02,-2.2 -31.37,-4.41 -7.11,-2.21 -12.01,-5.15 -14.95,-9.07 -2.94,-3.67 -5.39,-8.82 -7.11,-14.95l-61.03 -186.75 -350.46 0 -58.58 181.6c-1.96,6.87 -4.41,12.5 -7.59,16.92 -2.95,4.65 -8.09,8.08 -14.95,10.78 -6.87,2.7 -16.67,4.41 -29.41,5.39 -12.75,0.98 -29.41,1.47 -50,1.47 -22.06,0 -39.21,-0.73 -51.71,-2.2 -12.5,-1.47 -21.08,-4.91 -25.74,-10.3 -4.9,-5.63 -6.61,-13.48 -5.14,-23.53 1.47,-10.04 5.14,-23.28 10.78,-40.19l286.26 -824.7c2.69,-8.09 6.12,-14.7 10.04,-19.61 3.68,-5.14 9.81,-8.82 18.14,-11.51 8.58,-2.7 20.1,-4.42 35.05,-5.15 14.7,-0.74 34.31,-0.98 58.82,-0.98 28.18,0 50.73,0.24 67.39,0.98 16.91,0.73 29.9,2.45 39.22,5.15 9.31,2.69 15.93,6.61 20.09,11.76 3.92,5.39 7.6,12.5 10.3,21.57l287.23 823.96zm-426.44 -682.31l-0.73 0 -129.41 395.32 260.77 0 -130.63 -395.32zm1122.97 132.1c0,23.04 -2.7,39.95 -8.09,50.98 -5.15,11.03 -11.52,16.67 -19.36,16.67l-75.24 0c10.54,11.51 17.89,24.5 22.55,38.96 4.65,14.71 6.86,29.9 6.86,45.59 0,37.25 -6.37,70.34 -18.63,99.26 -12.5,28.92 -30.39,53.42 -53.67,73.28 -23.04,19.85 -51.22,34.8 -83.82,45.09 -32.84,10.29 -69.36,15.44 -109.55,15.44 -20.59,0 -40.19,-2.45 -58.82,-7.6 -18.87,-4.9 -33.09,-10.78 -43.13,-17.4 -5.89,6.13 -11.03,13.48 -15.44,22.31 -4.66,8.57 -6.87,18.13 -6.87,28.67 0,13.97 6.13,25.49 18.38,34.31 12.01,8.82 29.17,13.73 51.23,14.71l155.87 5.63c36.27,1.47 68.87,6.62 97.3,15.44 28.43,8.83 52.44,21.33 71.8,37.5 19.37,15.93 34.32,35.29 44.61,57.6 10.29,22.54 15.44,48.28 15.44,76.95 0,31.62 -7.11,61.27 -20.83,89.21 -13.97,28.19 -34.8,52.45 -62.5,73.04 -27.94,20.58 -62.74,36.76 -104.65,48.77 -41.91,12.01 -90.68,17.89 -146.8,17.89 -54.41,0 -100.98,-4.41 -139.7,-12.99 -38.48,-8.58 -70.09,-20.59 -94.6,-35.78 -24.75,-15.44 -42.64,-33.58 -53.92,-54.9 -11.27,-21.32 -16.91,-44.61 -16.91,-70.1 0,-15.68 1.96,-30.88 6.13,-45.09 4.16,-14.46 10.05,-28.19 17.89,-41.42 7.84,-12.99 17.65,-25.73 29.16,-37.5 11.52,-12.01 24.51,-23.52 39.46,-34.55 -20.58,-11.03 -36.51,-25.98 -47.79,-44.85 -11.27,-18.87 -16.91,-39.71 -16.91,-62.25 0,-28.19 6.62,-53.92 19.36,-77.2 12.99,-23.29 29.9,-44.12 50.49,-62.99 -16.91,-16.67 -30.15,-36.76 -40.19,-60.05 -10.05,-23.52 -15.2,-52.69 -15.2,-87.49 0,-37.5 6.62,-70.83 19.85,-100.24 12.99,-29.41 31.37,-54.16 54.9,-74.5 23.28,-20.35 51.47,-35.79 83.82,-46.57 32.59,-10.78 68.62,-16.17 107.83,-16.17 20.1,0 39.46,1.22 57.84,3.43 18.38,2.45 35.54,5.63 51.23,9.8l203.17 0c8.09,0 14.7,5.39 19.85,15.93 4.9,10.54 7.6,28.18 7.6,53.18zm-232.09 151.71c0,-34.31 -9.56,-61.27 -28.68,-80.39 -19.12,-19.11 -46.07,-28.67 -81.12,-28.67 -17.65,0 -33.33,2.94 -46.57,9.07 -13.48,5.88 -24.51,13.97 -33.57,24.26 -8.83,10.29 -15.44,22.3 -19.61,36.03 -4.41,13.72 -6.37,27.93 -6.37,42.64 0,32.6 9.56,58.33 28.67,77.2 19.12,18.87 45.59,28.43 79.65,28.43 18.14,0 34.07,-2.94 47.31,-8.58 13.47,-5.88 24.5,-13.72 33.33,-23.77 9.06,-10.05 15.68,-21.57 20.34,-34.8 4.41,-13.24 6.62,-26.96 6.62,-41.42zm42.39 510.99c0,-21.32 -8.57,-37.98 -25.73,-49.26 -17.4,-11.52 -40.93,-17.89 -71.07,-18.62l-128.67 -3.68c-12.25,9.07 -22.3,17.89 -29.66,26.22 -7.59,8.34 -13.48,16.18 -18.13,24.02 -4.41,7.6 -7.35,14.95 -8.82,22.06 -1.48,7.11 -2.21,14.7 -2.21,22.3 0,23.77 12.01,41.91 36.27,54.41 24.26,12.5 58.33,18.63 102.2,18.63 27.45,0 50.49,-2.7 69.11,-8.34 18.63,-5.39 33.58,-12.74 45.1,-21.81 11.52,-9.07 19.61,-19.12 24.51,-30.39 4.65,-11.27 7.1,-23.04 7.1,-35.54zm917.59 -66.41c0,4.65 -1.22,8.82 -3.67,12.5 -2.21,3.67 -6.38,6.61 -12.5,9.06 -5.88,2.21 -13.73,4.17 -23.78,5.4 -9.8,1.22 -22.05,1.71 -36.76,1.71 -15.93,0 -28.67,-0.49 -38.48,-1.71 -9.8,-1.23 -17.64,-3.19 -23.28,-5.4 -5.88,-2.45 -9.8,-5.39 -12.25,-9.06 -2.45,-3.68 -3.68,-7.85 -3.68,-12.5l0 -74.02c-35.29,37.99 -71.32,66.66 -108.08,85.78 -36.76,19.12 -74.75,28.68 -113.96,28.68 -44.12,0 -81.37,-7.11 -111.27,-21.57 -29.9,-14.22 -54.16,-34.07 -72.54,-58.82 -18.39,-25 -31.62,-53.67 -39.71,-86.52 -7.84,-32.84 -11.76,-73.76 -11.76,-122.54l0 -392.13c0,-4.65 1.22,-8.82 3.92,-12.5 2.7,-3.67 7.6,-6.61 14.46,-9.06 6.86,-2.21 16.42,-4.17 28.18,-5.4 11.77,-1.22 26.23,-1.71 43.63,-1.71 17.64,0 32.35,0.49 43.87,1.71 11.52,1.23 20.83,3.19 27.69,5.4 7.11,2.45 12.01,5.39 14.71,9.06 2.94,3.68 4.41,7.85 4.41,12.5l0 361.99c0,33.58 2.2,59.06 6.37,76.71 4.41,17.89 11.03,33.09 19.85,45.58 8.83,12.75 20.1,22.55 33.82,29.66 13.48,6.86 29.41,10.29 47.8,10.29 23.03,0 46.07,-8.33 69.35,-25 23.04,-16.66 48.04,-41.17 74.26,-73.03l0 -426.2c0,-4.65 1.23,-8.82 3.92,-12.5 2.7,-3.67 7.36,-6.61 14.46,-9.06 6.87,-2.21 16.18,-4.17 27.45,-5.4 11.52,-1.22 26.23,-1.71 43.87,-1.71 17.65,0 32.35,0.49 43.87,1.71 11.28,1.23 20.59,3.19 27.21,5.4 6.61,2.45 11.52,5.39 14.21,9.06 2.94,3.68 4.41,7.85 4.41,12.5l0 641.14zm727.4 2.2c0,6.62 -2.45,11.77 -7.11,15.69 -4.9,3.92 -12.49,6.62 -22.79,8.33 -10.29,1.72 -25.49,2.45 -45.83,2.45 -21.57,0 -37.25,-0.73 -47.05,-2.45 -9.81,-1.71 -16.91,-4.41 -20.84,-8.33 -4.16,-3.92 -6.12,-9.07 -6.12,-15.69l0 -50.97c-26.47,28.18 -56.37,49.99 -90.19,65.68 -33.58,15.68 -71.08,23.53 -112.25,23.53 -33.82,0 -65.19,-4.42 -93.62,-13.24 -28.43,-8.82 -52.94,-22.06 -73.77,-39.46 -20.83,-17.64 -37.01,-39.21 -48.53,-64.94 -11.52,-25.98 -17.15,-56.13 -17.15,-90.44 0,-37.5 7.35,-69.85 21.81,-97.3 14.7,-27.69 36.52,-50.24 65.44,-68.37 28.92,-17.9 64.7,-31.13 107.83,-39.71 42.89,-8.58 92.89,-12.99 149.75,-12.99l62.49 0 0 -38.72c0,-20.1 -1.96,-37.74 -6.12,-52.94 -3.93,-14.95 -10.79,-27.69 -20.1,-37.74 -9.31,-10.05 -21.57,-17.4 -37.25,-22.3 -15.44,-4.66 -34.8,-7.11 -57.6,-7.11 -30.14,0 -57.1,3.43 -80.63,10.05 -23.77,6.62 -44.6,14.21 -62.74,22.3 -18.14,8.09 -33.33,15.69 -45.59,22.3 -12.25,6.62 -22.05,10.05 -29.65,10.05 -5.39,0 -10.05,-1.71 -13.97,-4.9 -4.17,-3.43 -7.6,-8.33 -10.05,-14.46 -2.69,-6.13 -4.65,-13.97 -6.13,-23.04 -1.47,-9.07 -2.2,-19.11 -2.2,-29.9 0,-14.95 1.22,-26.71 3.68,-35.29 2.2,-8.58 6.86,-16.17 13.47,-23.28 6.87,-6.86 18.39,-14.46 35.3,-22.79 16.66,-8.34 36.27,-16.18 58.82,-23.29 22.54,-7.35 47.05,-13.23 73.52,-17.64 26.71,-4.66 54.16,-6.87 82.35,-6.87 50.24,0 93.13,4.91 128.91,14.71 35.54,9.8 64.95,25 87.74,45.34 23.04,20.34 39.95,46.57 50.49,78.67 10.54,31.86 15.68,70.09 15.68,113.96l0 431.1zm-177.93 -274.98l-68.87 0c-29.16,0 -53.91,2.21 -74.5,6.37 -20.59,4.41 -37.25,10.79 -50.24,19.61 -12.99,8.58 -22.3,18.87 -28.19,31.13 -6.12,12.25 -9.06,26.22 -9.06,41.9 0,26.96 8.57,48.04 25.48,63.24 16.92,15.44 40.44,23.03 70.59,23.03 25.24,0 48.52,-6.37 69.85,-19.36 21.32,-12.99 42.89,-31.86 64.94,-56.86l0 -109.06z"/>
   <path class="fil1" d="M1661.88 334.48l586.18 317.12c195.52,104.93 388.58,202.38 586.48,314.47 52.54,29.76 82.28,79.17 82.28,136.69l0 634.24c0.79,211.14 7.26,416.54 2.61,633.16 -1.23,57.52 -32.03,106.36 -85.2,135.13l-586.17 317.11c-194.76,106.21 -381.35,214.16 -583.89,318.7 -53.77,27.76 -114.31,27.18 -167.48,-1.59l-586.16 -317.11c-195.54,-104.93 -388.6,-202.38 -586.5,-314.47 -52.53,-29.76 -82.27,-79.17 -82.27,-136.69l0 -634.24c-0.8,-211.14 -7.26,-416.54 -2.61,-633.16 1.23,-57.52 32.02,-106.37 85.2,-135.13l586.18 -317.11c194.74,-106.21 381.33,-214.16 583.87,-318.7 53.77,-27.76 114.31,-27.18 167.48,1.58zm-916.98 1640.77c-3.94,-7.21 -7.87,-15.08 -9.19,-25.58 -1.31,-10.49 0,-23.62 2.63,-33.45 2.62,-9.84 6.56,-16.4 18.37,-30.17 11.8,-13.78 31.49,-34.78 52.47,-53.14 20.99,-18.37 43.3,-34.11 67.56,-47.89 24.28,-13.77 50.52,-25.58 72.82,-34.11 22.3,-8.53 40.67,-13.77 61.66,-17.04 21,-3.29 44.61,-4.61 72.82,-3.29 28.2,1.31 61,5.24 93.14,14.43 32.14,9.18 63.63,23.61 90.52,39.36 26.89,15.74 49.21,32.79 74.78,54.44 25.59,21.65 54.45,47.89 73.47,64.95 19.03,17.04 28.2,24.92 41.98,34.11 13.78,9.17 32.15,19.67 49.86,26.89 17.71,7.21 34.76,11.15 53.78,12.46 19.03,1.31 40.02,0 59.7,-3.94 19.68,-3.93 38.04,-10.49 55.75,-19.02 17.71,-8.53 34.78,-19.02 54.45,-34.1 19.68,-15.09 41.98,-34.78 62.97,-53.14 20.99,-18.38 40.68,-35.42 59.7,-49.86 19.02,-14.42 37.39,-26.23 60.35,-38.04 22.95,-11.81 50.51,-23.62 73.46,-32.14 22.96,-8.53 41.33,-13.78 64.29,-17.05 22.96,-3.29 50.51,-4.61 77.4,-2.63 26.89,1.96 53.13,7.21 76.75,15.74 23.62,8.53 44.6,20.33 66.91,34.77 22.3,14.43 45.92,31.49 65.59,48.54 19.69,17.06 35.42,34.11 47.89,49.86 12.46,15.74 21.65,30.17 25.58,43.95 3.94,13.77 2.63,26.88 -0.65,38.03 -3.28,11.16 -8.53,20.34 -15.75,28.87 -7.21,8.53 -16.4,16.4 -27.55,21 -11.15,4.58 -24.27,5.9 -36.07,5.25 -11.81,-0.67 -22.31,-3.29 -34.77,-11.16 -12.47,-7.87 -26.89,-20.99 -39.36,-34.11 -12.47,-13.12 -22.95,-26.25 -36.73,-37.4 -13.77,-11.15 -30.84,-20.33 -47.89,-27.54 -17.06,-7.22 -34.11,-12.47 -51.82,-15.09 -17.71,-2.63 -36.07,-2.63 -56.41,1.31 -20.34,3.94 -42.63,11.81 -64.28,22.3 -21.66,10.5 -42.64,23.62 -62.98,38.71 -20.33,15.09 -40.01,32.14 -59.04,49.2 -19.02,17.05 -37.38,34.1 -62.97,51.81 -25.58,17.71 -58.38,36.09 -87.89,49.86 -29.53,13.78 -55.77,22.96 -83.98,28.86 -28.2,5.9 -58.37,8.53 -91.17,5.91 -32.8,-2.63 -68.22,-10.51 -96.43,-19.68 -28.2,-9.19 -49.19,-19.69 -70.84,-33.46 -21.65,-13.78 -43.95,-30.83 -66.26,-50.51 -22.3,-19.68 -44.6,-41.98 -62.97,-59.69 -18.36,-17.71 -32.79,-30.84 -49.19,-41.99 -16.4,-11.15 -34.78,-20.33 -51.18,-26.88 -16.39,-6.57 -30.82,-10.5 -47.22,-13.13 -16.4,-2.62 -34.77,-3.93 -53.78,-3.27 -19.03,0.65 -38.71,3.27 -59.05,11.15 -20.33,7.87 -41.32,20.99 -60.35,34.76 -19.01,13.77 -36.07,28.21 -49.85,40.67 -13.78,12.47 -24.27,22.96 -34.76,30.18 -10.5,7.21 -21,11.14 -31.49,12.46 -10.5,1.31 -21,0 -31.49,-3.93 -10.5,-3.94 -20.99,-10.51 -28.21,-17.06 -7.21,-6.56 -11.14,-13.12 -15.08,-20.34zm-83.73 -389.36c-4.36,-7.21 -8.71,-15.08 -10.16,-25.57 -1.45,-10.5 0,-23.62 2.9,-33.46 2.91,-9.84 7.26,-16.4 20.32,-30.18 13.06,-13.77 34.83,-34.76 58.04,-53.12 23.22,-18.38 47.88,-34.11 74.73,-47.89 26.84,-13.78 55.87,-25.59 80.53,-34.11 24.67,-8.53 44.99,-13.77 68.2,-17.06 23.22,-3.27 49.34,-4.59 80.54,-3.27 31.19,1.31 67.47,5.24 103.02,14.42 35.55,9.18 70.38,23.62 100.12,39.36 29.75,15.75 54.42,32.8 82.71,54.45 28.3,21.64 60.22,47.88 81.26,64.94 21.04,17.05 31.19,24.92 46.43,34.11 15.23,9.18 35.55,19.68 55.14,26.9 19.59,7.21 38.45,11.14 59.49,12.46 21.05,1.31 44.26,0 66.02,-3.94 21.77,-3.94 42.09,-10.5 61.68,-19.02 19.59,-8.53 38.45,-19.03 60.21,-34.11 21.77,-15.09 46.44,-34.77 69.65,-53.14 23.22,-18.37 44.99,-35.41 66.03,-49.85 21.04,-14.43 41.35,-26.24 66.75,-38.05 25.39,-11.8 55.86,-23.61 81.25,-32.13 25.4,-8.53 45.72,-13.78 71.11,-17.06 25.4,-3.28 55.86,-4.6 85.61,-2.63 29.75,1.97 58.77,7.22 84.89,15.75 26.12,8.52 49.33,20.33 74,34.76 24.67,14.43 50.79,31.49 72.55,48.55 21.77,17.05 39.18,34.1 52.96,49.84 13.78,15.75 23.94,30.18 28.29,43.96 4.36,13.77 2.91,26.89 -0.72,38.04 -3.63,11.15 -9.43,20.34 -17.41,28.86 -7.98,8.53 -18.14,16.41 -30.47,20.99 -12.33,4.6 -26.84,5.92 -39.9,5.25 -13.06,-0.65 -24.67,-3.27 -38.45,-11.15 -13.79,-7.87 -29.75,-20.99 -43.54,-34.11 -13.78,-13.11 -25.39,-26.24 -40.63,-37.39 -15.23,-11.15 -34.09,-20.33 -52.96,-27.54 -18.86,-7.22 -37.73,-12.47 -57.32,-15.09 -19.59,-2.63 -39.9,-2.63 -62.39,1.31 -22.49,3.94 -47.16,11.8 -71.1,22.3 -23.95,10.5 -47.16,23.61 -69.65,38.7 -22.49,15.08 -44.26,32.15 -65.3,49.2 -21.04,17.06 -41.36,34.11 -69.65,51.82 -28.3,17.71 -64.57,36.07 -97.22,49.85 -32.65,13.78 -61.67,22.96 -92.87,28.86 -31.2,5.91 -64.58,8.54 -100.85,5.92 -36.28,-2.63 -75.46,-10.51 -106.65,-19.69 -31.2,-9.18 -54.41,-19.68 -78.35,-33.45 -23.94,-13.78 -48.61,-30.84 -73.28,-50.51 -24.67,-19.68 -49.33,-41.99 -69.65,-59.69 -20.31,-17.71 -36.28,-30.84 -54.41,-41.99 -18.14,-11.15 -38.46,-20.33 -56.6,-26.89 -18.13,-6.56 -34.1,-10.49 -52.24,-13.12 -18.13,-2.62 -38.44,-3.94 -59.48,-3.28 -21.04,0.66 -42.81,3.28 -65.31,11.15 -22.49,7.87 -45.7,21 -66.74,34.77 -21.04,13.77 -39.91,28.2 -55.15,40.67 -15.23,12.46 -26.84,22.95 -38.45,30.18 -11.61,7.21 -23.21,11.14 -34.82,12.46 -11.61,1.31 -23.22,0 -34.83,-3.94 -11.61,-3.93 -23.21,-10.5 -31.2,-17.06 -7.98,-6.55 -12.33,-13.11 -16.68,-20.34z"/>
  </g>
 </g>
</svg>
