<?xml version="1.0" encoding="UTF-8"?>
<!DOCTYPE svg PUBLIC "-//W3C//DTD SVG 1.0//EN" "http://www.w3.org/TR/2001/REC-SVG-20010904/DTD/svg10.dtd">
<!-- Creator: CorelDRAW -->
<svg xmlns="http://www.w3.org/2000/svg" xml:space="preserve" width="84.6666mm" height="84.6666mm" version="1.0" shape-rendering="geometricPrecision" text-rendering="geometricPrecision" image-rendering="optimizeQuality" fill-rule="evenodd" clip-rule="evenodd"
viewBox="0 0 8467 8467"
 xmlns:xlink="http://www.w3.org/1999/xlink"
 xmlns:xodm="http://www.corel.com/coreldraw/odm/2003">
 <defs>
    <linearGradient id="id0" gradientUnits="userSpaceOnUse" x1="1773" y1="3541" x2="6692" y2="3541">
     <stop offset="0" stop-opacity="1" stop-color="#2B66C5"/>
     <stop offset="1" stop-opacity="1" stop-color="#89ACE5"/>
    </linearGradient>
    <clipPath id="id1">
     <path d="M4385 960l1079 584c360,193 715,373 1080,579 97,55 151,146 151,252l0 1168c1,389 13,767 5,1166 -2,106 -59,196 -157,249l-1079 584c-359,196 -702,394 -1075,587 -99,51 -210,50 -308,-3l-1079 -584c-360,-193 -715,-373 -1080,-579 -97,-55 -151,-146 -151,-252l0 -1168c-1,-389 -13,-767 -5,-1166 2,-106 59,-196 157,-249l1079 -584c359,-196 702,-394 1075,-587 99,-51 210,-50 308,3z"/>
    </clipPath>
    <clipPath id="id2">
     <path d="M3941 3919l-3 0 3 0z"/>
    </clipPath>
 </defs>
 <g id="Capa_x0020_1">
  <metadata id="CorelCorpID_0Corel-Layer"/>
 </g>
 <g id="Capa_x0020_1_0">
  <metadata id="CorelCorpID_1Corel-Layer"/>
  <g id="_2303614824304">
   <path fill="url(#id0)" d="M4385 960l1079 584c360,193 715,373 1080,579 97,55 151,146 151,252l0 1168c1,389 13,767 5,1166 -2,106 -59,196 -157,249l-1079 584c-359,196 -702,394 -1075,587 -99,51 -210,50 -308,-3l-1079 -584c-360,-193 -715,-373 -1080,-579 -97,-55 -151,-146 -151,-252l0 -1168c-1,-389 -13,-767 -5,-1166 2,-106 59,-196 157,-249l1079 -584c359,-196 702,-394 1075,-587 99,-51 210,-50 308,3z"/>
   <g>
   </g>
   <g>
   </g>
   <g clip-path="url(#id1)">
    <g>
     <rect fill="none" stroke="black" stroke-width="17" stroke-miterlimit="22.9256" x="1566" y="1693" width="357" height="435"/>
    </g>
   </g>
   <path fill="none" d="M4385 960l1079 584c360,193 715,373 1080,579 97,55 151,146 151,252l0 1168c1,389 13,767 5,1166 -2,106 -59,196 -157,249l-1079 584c-359,196 -702,394 -1075,587 -99,51 -210,50 -308,-3l-1079 -584c-360,-193 -715,-373 -1080,-579 -97,-55 -151,-146 -151,-252l0 -1168c-1,-389 -13,-767 -5,-1166 2,-106 59,-196 157,-249l1079 -584c359,-196 702,-394 1075,-587 99,-51 210,-50 308,3z"/>
   <path fill="none" d="M4385 960l1079 584c360,193 715,373 1080,579 97,55 151,146 151,252l0 1168c1,389 13,767 5,1166 -2,106 -59,196 -157,249l-1079 584c-359,196 -702,394 -1075,587 -99,51 -210,50 -308,-3l-1079 -584c-360,-193 -715,-373 -1080,-579 -97,-55 -151,-146 -151,-252l0 -1168c-1,-389 -13,-767 -5,-1166 2,-106 59,-196 157,-249l1079 -584c359,-196 702,-394 1075,-587 99,-51 210,-50 308,3z"/>
   <path fill="none" d="M4385 960l1079 584c360,193 715,373 1080,579 97,55 151,146 151,252l0 1168c1,389 13,767 5,1166 -2,106 -59,196 -157,249l-1079 584c-359,196 -702,394 -1075,587 -99,51 -210,50 -308,-3l-1079 -584c-360,-193 -715,-373 -1080,-579 -97,-55 -151,-146 -151,-252l0 -1168c-1,-389 -13,-767 -5,-1166 2,-106 59,-196 157,-249l1079 -584c359,-196 702,-394 1075,-587 99,-51 210,-50 308,3z"/>
   <g>
   </g>
   <g>
   </g>
   <g clip-path="url(#id2)">
    <g>
     <rect fill="none" stroke="black" stroke-width="17" stroke-miterlimit="22.9256" x="1566" y="1693" width="357" height="435"/>
    </g>
   </g>
   <polygon fill="none" points="3941,3919 3938,3919 "/>
   <polygon fill="none" points="3941,3919 3938,3919 "/>
   <line fill="none" stroke="black" stroke-width="17" stroke-miterlimit="22.9256" x1="3941" y1="3919" x2="3938" y2= "3919" />
   <path fill="black" fill-rule="nonzero" d="M171 7259l166 -16c10,55 30,96 60,122 30,26 71,39 123,39 55,0 96,-12 123,-35 28,-23 42,-50 42,-81 0,-20 -6,-37 -17,-51 -12,-14 -32,-26 -61,-36 -20,-7 -65,-19 -135,-37 -91,-23 -154,-51 -191,-84 -52,-46 -77,-103 -77,-170 0,-43 12,-83 36,-121 24,-37 59,-66 105,-85 46,-20 101,-29 165,-29 105,0 185,23 238,70 53,47 81,109 84,187l-171 6c-7,-44 -23,-75 -46,-94 -24,-19 -59,-29 -107,-29 -49,0 -87,10 -115,31 -18,13 -27,31 -27,53 0,20 8,37 25,51 21,18 73,37 156,57 83,19 144,40 183,61 40,21 71,49 93,86 22,36 34,81 34,134 0,48 -13,94 -40,136 -27,42 -65,74 -114,94 -49,21 -110,31 -183,31 -106,0 -188,-25 -245,-74 -57,-49 -91,-121 -102,-214zm794 -143c0,-86 13,-158 39,-216 19,-43 45,-82 78,-116 33,-34 69,-59 109,-76 53,-22 113,-33 182,-33 124,0 224,39 298,116 74,77 112,184 112,322 0,136 -37,243 -111,320 -74,77 -173,115 -297,115 -125,0 -225,-38 -299,-115 -74,-76 -111,-182 -111,-316zm175 -6c0,95 22,168 66,217 44,49 100,74 168,74 68,0 124,-25 167,-73 44,-49 65,-122 65,-220 0,-97 -21,-169 -64,-216 -42,-48 -99,-71 -169,-71 -70,0 -127,24 -170,72 -43,48 -65,121 -65,218zm775 -421l310 0c70,0 123,5 160,16 49,15 92,40 127,78 35,37 62,83 80,136 18,54 27,120 27,199 0,69 -9,129 -26,179 -21,61 -51,111 -90,149 -29,29 -69,51 -119,67 -37,12 -87,18 -150,18l-319 0 0 -842zm171 142l0 558 126 0c47,0 81,-3 102,-8 28,-7 50,-19 68,-35 18,-16 33,-44 44,-81 12,-38 17,-89 17,-154 0,-65 -6,-115 -17,-150 -11,-35 -27,-62 -48,-82 -21,-19 -47,-33 -78,-40 -24,-5 -70,-8 -139,-8l-76 0zm1438 700l-184 0 -73 -192 -338 0 -70 192 -180 0 327 -842 180 0 337 842zm-312 -334l-117 -312 -114 312 231 0zm886 334l0 -354 -309 -488 199 0 199 333 194 -333 196 0 -309 489 0 353 -171 0zm1584 0l-184 0 -73 -192 -338 0 -70 192 -180 0 327 -842 180 0 337 842zm-312 -334l-117 -312 -114 312 231 0zm794 25l0 -142 366 0 0 336c-35,35 -87,65 -155,92 -67,26 -136,39 -205,39 -88,0 -165,-18 -230,-55 -65,-37 -114,-90 -147,-159 -33,-69 -49,-144 -49,-225 0,-88 18,-166 55,-234 37,-68 91,-121 161,-157 54,-28 121,-42 202,-42 105,0 186,22 245,66 59,44 96,105 113,182l-169 32c-12,-41 -34,-74 -67,-98 -33,-24 -73,-36 -122,-36 -74,0 -133,24 -177,71 -44,47 -66,117 -66,210 0,100 22,175 66,225 45,50 103,75 174,75 35,0 71,-7 107,-21 36,-14 66,-31 92,-51l0 -107 -194 0zm523 -533l171 0 0 456c0,73 2,119 6,141 7,35 24,62 51,83 27,21 64,31 111,31 48,0 84,-10 108,-30 24,-20 39,-44 44,-73 5,-29 7,-76 7,-143l0 -466 171 0 0 443c0,101 -5,173 -14,214 -9,42 -26,77 -51,106 -25,29 -57,52 -99,69 -41,17 -95,26 -162,26 -80,0 -141,-9 -182,-28 -41,-19 -74,-43 -98,-73 -24,-30 -40,-61 -47,-94 -11,-48 -17,-120 -17,-214l0 -450zm1608 842l-184 0 -73 -192 -338 0 -70 192 -180 0 327 -842 180 0 337 842zm-312 -334l-117 -312 -114 312 231 0z"/>
   <g>
    <path fill="white" d="M2701 3980c-7,-13 -14,-28 -17,-47 -2,-19 0,-43 5,-61 5,-18 12,-30 34,-55 22,-25 58,-64 96,-98 39,-34 80,-63 124,-88 45,-25 93,-47 134,-63 41,-16 75,-25 113,-31 39,-6 82,-8 134,-6 52,2 112,10 171,27 59,17 117,43 166,72 49,29 90,60 137,100 47,40 100,88 135,119 35,31 52,46 77,63 25,17 59,36 92,49 33,13 64,20 99,23 35,2 73,0 110,-7 36,-7 70,-19 102,-35 33,-16 64,-35 100,-63 36,-28 77,-64 116,-98 39,-34 75,-65 110,-92 35,-27 69,-48 111,-70 42,-22 93,-43 135,-59 42,-16 76,-25 118,-31 42,-6 93,-8 142,-5 49,4 98,13 141,29 43,16 82,37 123,64 41,26 84,58 120,89 36,31 65,63 88,92 23,29 40,55 47,81 7,25 5,49 -1,70 -6,20 -16,37 -29,53 -13,16 -30,30 -51,39 -20,8 -45,11 -66,10 -22,-1 -41,-6 -64,-20 -23,-14 -49,-39 -72,-63 -23,-24 -42,-48 -67,-69 -25,-20 -57,-37 -88,-51 -31,-13 -63,-23 -95,-28 -33,-5 -66,-5 -104,2 -37,7 -78,22 -118,41 -40,19 -78,43 -116,71 -37,28 -73,59 -108,90 -35,31 -69,63 -116,95 -47,33 -107,66 -161,92 -54,25 -102,42 -154,53 -52,11 -107,16 -167,11 -60,-5 -125,-19 -177,-36 -52,-17 -90,-36 -130,-61 -40,-25 -81,-57 -122,-93 -41,-36 -82,-77 -116,-110 -34,-33 -60,-57 -90,-77 -30,-20 -64,-37 -94,-49 -30,-12 -57,-19 -87,-24 -30,-5 -64,-7 -99,-6 -35,1 -71,6 -108,20 -37,14 -76,39 -111,64 -35,25 -66,52 -92,75 -25,23 -45,42 -64,55 -19,13 -39,20 -58,23 -19,2 -39,0 -58,-7 -19,-7 -39,-19 -52,-31 -13,-12 -20,-24 -28,-37z"/>
    <path fill="white" d="M2547 3265c-8,-13 -16,-28 -19,-47 -3,-19 0,-43 5,-61 5,-18 13,-30 37,-55 24,-25 64,-64 107,-98 43,-34 88,-63 137,-88 49,-25 103,-47 148,-63 45,-16 83,-25 125,-31 43,-6 91,-8 148,-6 57,2 124,10 189,27 65,17 129,43 184,72 55,29 100,60 152,100 52,40 111,88 149,119 39,31 57,46 85,63 28,17 65,36 101,49 36,13 71,20 109,23 39,2 81,0 121,-7 40,-7 77,-19 113,-35 36,-16 71,-35 111,-63 40,-28 85,-64 128,-98 43,-34 83,-65 121,-92 39,-27 76,-48 123,-70 47,-22 103,-43 149,-59 47,-16 84,-25 131,-31 47,-6 103,-8 157,-5 55,4 108,13 156,29 48,16 91,37 136,64 45,27 93,58 133,89 40,31 72,63 97,92 25,29 44,55 52,81 8,25 5,49 -1,70 -7,20 -17,37 -32,53 -15,16 -33,30 -56,39 -23,8 -49,11 -73,10 -24,-1 -45,-6 -71,-20 -25,-14 -55,-39 -80,-63 -25,-24 -47,-48 -75,-69 -28,-20 -63,-37 -97,-51 -35,-13 -69,-23 -105,-28 -36,-5 -73,-5 -115,2 -41,7 -87,22 -131,41 -44,19 -87,43 -128,71 -41,28 -81,59 -120,90 -39,31 -76,63 -128,95 -52,33 -119,66 -179,92 -60,25 -113,42 -171,53 -57,11 -119,16 -185,11 -67,-5 -139,-19 -196,-36 -57,-17 -100,-36 -144,-61 -44,-25 -89,-57 -135,-93 -45,-36 -91,-77 -128,-110 -37,-33 -67,-57 -100,-77 -33,-20 -71,-37 -104,-49 -33,-12 -63,-19 -96,-24 -33,-5 -71,-7 -109,-6 -39,1 -79,6 -120,20 -41,14 -84,39 -123,64 -39,25 -73,52 -101,75 -28,23 -49,42 -71,55 -21,13 -43,20 -64,23 -21,2 -43,0 -64,-7 -21,-7 -43,-19 -57,-31 -15,-12 -23,-24 -31,-37z"/>
   </g>
  </g>
 </g>
</svg>
