<?xml version="1.0" encoding="UTF-8"?>
<!DOCTYPE svg PUBLIC "-//W3C//DTD SVG 1.1//EN" "http://www.w3.org/Graphics/SVG/1.1/DTD/svg11.dtd">
<!-- Creator: CorelDRAW -->
<svg xmlns="http://www.w3.org/2000/svg" xml:space="preserve" width="100.166mm" height="82.635mm" version="1.1" style="shape-rendering:geometricPrecision; text-rendering:geometricPrecision; image-rendering:optimizeQuality; fill-rule:evenodd; clip-rule:evenodd"
viewBox="0 0 10016.6 8263.5"
 xmlns:xlink="http://www.w3.org/1999/xlink"
 xmlns:xodm="http://www.corel.com/coreldraw/odm/2003">
 <defs>
  <style type="text/css">
   <![CDATA[
    .fil0 {fill:white}
    .fil1 {fill:white;fill-rule:nonzero}
   ]]>
  </style>
 </defs>
 <g id="Capa_x0020_1">
  <metadata id="CorelCorpID_0Corel-Layer"/>
  <g id="_2303624705024">
   <path class="fil0" d="M5182.45 239.79l1264.15 683.91c421.67,226.28 838.03,436.44 1264.83,678.17 113.29,64.17 177.43,170.74 177.43,294.79l0 1367.81c1.71,455.34 15.65,898.31 5.63,1365.48 -2.66,124.03 -69.07,229.38 -183.74,291.4l-1264.15 683.89c-420.01,229.06 -822.4,461.87 -1259.2,687.32 -115.97,59.86 -246.53,58.61 -361.18,-3.41l-1264.15 -683.91c-421.67,-226.28 -838.03,-436.44 -1264.83,-678.17 -113.29,-64.18 -177.43,-170.74 -177.43,-294.79l0 -1367.81c-1.71,-455.34 -15.65,-898.31 -5.63,-1365.48 2.66,-124.03 69.07,-229.38 183.74,-291.41l1264.15 -683.88c420.01,-229.06 822.4,-461.87 1259.2,-687.33 115.97,-59.86 246.53,-58.6 361.18,3.42zm-1973.05 3537.21c-8.47,-15.52 -16.93,-32.46 -19.76,-55.03 -2.82,-22.58 0.01,-50.81 5.65,-71.97 5.65,-21.17 14.11,-35.28 39.51,-64.91 25.4,-29.64 67.74,-74.79 112.89,-114.3 45.16,-39.52 93.13,-73.38 145.34,-103.01 52.21,-29.64 108.66,-55.04 156.63,-73.38 47.98,-18.35 87.5,-29.63 132.65,-36.68 45.16,-7.06 95.96,-9.89 156.63,-7.06 60.68,2.82 131.24,11.28 200.38,31.04 69.14,19.75 136.88,50.8 194.73,84.67 57.86,33.86 105.84,70.55 160.87,117.12 55.04,46.56 117.12,103.01 158.04,139.7 40.93,36.68 60.68,53.62 90.31,73.38 29.64,19.75 69.15,42.33 107.25,57.86 38.1,15.52 74.79,23.98 115.71,26.81 40.93,2.82 86.08,-0.01 128.41,-8.47 42.34,-8.47 81.85,-22.58 119.95,-40.92 38.1,-18.35 74.79,-40.93 117.12,-73.38 42.34,-32.46 90.31,-74.8 135.46,-114.31 45.16,-39.51 87.5,-76.19 128.42,-107.23 40.92,-31.05 80.43,-56.45 129.82,-81.85 49.39,-25.4 108.65,-50.8 158.04,-69.14 49.39,-18.35 88.91,-29.64 138.3,-36.69 49.39,-7.06 108.65,-9.89 166.5,-5.65 57.86,4.23 114.31,15.52 165.11,33.87 50.8,18.34 95.95,43.74 143.93,74.79 47.98,31.04 98.78,67.73 141.11,104.42 42.34,36.69 76.2,73.37 103.01,107.24 26.81,33.87 46.57,64.91 55.03,94.55 8.47,29.63 5.65,57.85 -1.41,81.84 -7.05,23.99 -18.34,43.74 -33.87,62.09 -15.52,18.34 -35.27,35.28 -59.26,45.16 -23.99,9.87 -52.21,12.7 -77.61,11.29 -25.4,-1.42 -47.98,-7.06 -74.79,-23.99 -26.81,-16.94 -57.86,-45.16 -84.67,-73.38 -26.81,-28.22 -49.38,-56.45 -79.02,-80.44 -29.63,-23.99 -66.32,-43.74 -103.01,-59.26 -36.69,-15.53 -73.38,-26.81 -111.48,-32.45 -38.1,-5.65 -77.61,-5.65 -121.36,2.82 -43.74,8.46 -91.71,25.4 -138.28,47.98 -46.57,22.57 -91.72,50.79 -135.47,83.25 -43.74,32.45 -86.08,69.14 -127,105.83 -40.92,36.69 -80.43,73.38 -135.47,111.48 -55.03,38.1 -125.58,77.61 -189.08,107.25 -63.5,29.63 -119.95,49.38 -180.63,62.08 -60.67,12.7 -125.59,18.35 -196.15,12.71 -70.55,-5.65 -146.75,-22.59 -207.43,-42.34 -60.67,-19.76 -105.83,-42.33 -152.4,-71.96 -46.56,-29.64 -94.54,-66.33 -142.52,-108.66 -47.98,-42.34 -95.95,-90.31 -135.46,-128.41 -39.51,-38.1 -70.56,-66.33 -105.84,-90.32 -35.27,-23.99 -74.79,-43.74 -110.07,-57.85 -35.27,-14.12 -66.32,-22.58 -101.6,-28.22 -35.27,-5.65 -74.78,-8.47 -115.7,-7.06 -40.92,1.41 -83.26,7.06 -127.01,23.99 -43.74,16.93 -88.89,45.16 -129.82,74.79 -40.92,29.63 -77.61,60.68 -107.25,87.49 -29.63,26.81 -52.2,49.38 -74.78,64.91 -22.58,15.52 -45.15,23.98 -67.73,26.81 -22.58,2.82 -45.16,0 -67.74,-8.46 -22.58,-8.47 -45.15,-22.59 -60.68,-36.7 -15.52,-14.11 -23.98,-28.22 -32.45,-43.74zm-180.12 -837.58c-9.37,-15.52 -18.72,-32.46 -21.85,-55.03 -3.12,-22.58 0.01,-50.81 6.25,-71.97 6.25,-21.17 15.6,-35.28 43.7,-64.91 28.09,-29.64 74.92,-74.79 124.86,-114.3 49.95,-39.52 103,-73.38 160.75,-103.01 57.74,-29.64 120.18,-55.04 173.24,-73.38 53.06,-18.35 96.78,-29.63 146.71,-36.68 49.95,-7.06 106.14,-9.89 173.24,-7.06 67.12,2.82 145.16,11.28 221.63,31.04 76.47,19.75 151.39,50.8 215.38,84.67 63.99,33.86 117.06,70.55 177.93,117.12 60.87,46.56 129.54,103.01 174.8,139.7 45.27,36.68 67.11,53.62 99.88,73.38 32.78,19.75 76.48,42.33 118.62,57.86 42.14,15.52 82.72,23.98 127.98,26.81 45.27,2.82 95.21,-0.01 142.03,-8.47 46.83,-8.47 90.53,-22.58 132.67,-40.92 42.14,-18.35 82.72,-40.93 129.54,-73.38 46.83,-32.46 99.88,-74.8 149.82,-114.31 49.95,-39.51 96.78,-76.19 142.04,-107.23 45.26,-31.05 88.96,-56.45 143.59,-81.85 54.62,-25.4 120.17,-50.8 174.79,-69.14 54.63,-18.35 98.34,-29.64 152.97,-36.69 54.63,-7.06 120.17,-9.89 184.15,-5.65 64,4.23 126.44,15.52 182.62,33.87 56.19,18.34 106.13,43.74 159.19,74.79 53.07,31.04 109.26,67.73 156.08,104.42 46.83,36.69 84.28,73.37 113.93,107.24 29.65,33.87 51.51,64.91 60.87,94.55 9.36,29.63 6.24,57.85 -1.56,81.84 -7.8,23.99 -20.29,43.74 -37.47,62.09 -17.16,18.34 -39.01,35.28 -65.54,45.16 -26.53,9.87 -57.75,12.7 -85.84,11.29 -28.09,-1.42 -53.07,-7.06 -82.72,-23.99 -29.65,-16.94 -63.99,-45.16 -93.65,-73.38 -29.65,-28.22 -54.61,-56.45 -87.4,-80.44 -32.77,-23.99 -73.35,-43.74 -113.93,-59.26 -40.58,-15.53 -81.16,-26.81 -123.3,-32.45 -42.14,-5.65 -85.84,-5.65 -134.23,2.82 -48.38,8.46 -101.43,25.4 -152.94,47.98 -51.51,22.57 -101.45,50.79 -149.84,83.25 -48.38,32.45 -95.21,69.14 -140.46,105.83 -45.26,36.69 -88.96,73.38 -149.84,111.48 -60.86,38.1 -138.9,77.61 -209.13,107.25 -70.23,29.63 -132.67,49.38 -199.78,62.08 -67.11,12.7 -138.91,18.35 -216.95,12.71 -78.03,-5.65 -162.31,-22.59 -229.43,-42.34 -67.1,-19.76 -117.05,-42.33 -168.56,-71.96 -51.49,-29.64 -104.56,-66.33 -157.63,-108.66 -53.07,-42.34 -106.12,-90.31 -149.82,-128.41 -43.7,-38.1 -78.05,-66.33 -117.07,-90.32 -39.01,-23.99 -82.72,-43.74 -121.74,-57.85 -39.01,-14.12 -73.35,-22.58 -112.37,-28.22 -39.01,-5.65 -82.71,-8.47 -127.97,-7.06 -45.26,1.41 -92.09,7.06 -140.48,23.99 -48.38,16.93 -98.31,45.16 -143.58,74.79 -45.26,29.63 -85.84,60.68 -118.63,87.49 -32.77,26.81 -57.73,49.38 -82.71,64.91 -24.97,15.52 -49.93,23.98 -74.91,26.81 -24.97,2.82 -49.95,0 -74.92,-8.46 -24.98,-8.47 -49.94,-22.59 -67.12,-36.7 -17.16,-14.11 -26.52,-28.22 -35.89,-43.74z"/>
   <path class="fil1" d="M246.05 7703.37l194.28 -19.29c11.71,64.99 35.13,112.53 70.73,143.07 35.59,30.54 83.59,45.7 143.99,45.7 63.84,0 112.06,-13.55 144.44,-40.65 32.38,-27.09 48.69,-58.79 48.69,-95.07 0,-23.42 -6.89,-43.17 -20.44,-59.71 -13.55,-16.3 -37.43,-30.54 -71.42,-42.48 -23.19,-8.27 -76.01,-22.51 -158.69,-43.18 -106.32,-26.64 -180.96,-59.25 -223.9,-98.06 -60.4,-54.42 -90.48,-120.79 -90.48,-199.1 0,-50.29 14.24,-97.6 42.48,-141.46 28.48,-43.86 69.36,-77.16 122.86,-100.13 53.51,-22.96 117.81,-34.44 193.6,-34.44 123.32,0 216.32,27.32 278.56,82.21 62.46,54.88 95.07,127.91 98.29,219.54l-199.8 6.89c-8.49,-50.98 -26.64,-87.49 -54.42,-109.77 -27.79,-22.28 -69.59,-33.53 -125.16,-33.53 -57.41,0 -102.42,11.94 -134.8,35.83 -20.9,15.38 -31.46,35.82 -31.46,61.54 0,23.43 9.87,43.4 29.62,59.94 25.03,21.36 85.89,43.4 182.57,66.37 96.68,22.73 168.1,46.62 214.26,70.96 46.39,24.57 82.67,57.87 108.85,100.35 26.18,42.49 39.27,94.85 39.27,157.08 0,56.49 -15.61,109.54 -47.08,158.92 -31.46,49.37 -75.78,86.11 -133.19,110 -57.41,24.11 -129.06,36.05 -214.72,36.05 -124.7,0 -220.46,-28.7 -287.29,-86.34 -66.83,-57.42 -106.55,-141.24 -119.64,-251.24zm930.07 -167.64c0,-100.59 15.16,-185.1 45.24,-253.53 22.27,-50.29 53.05,-95.53 91.86,-135.49 38.81,-39.96 81.29,-69.58 127.45,-89.1 61.55,-25.95 132.51,-39.04 212.88,-39.04 145.6,0 261.8,45.24 349.3,135.49 87.26,90.48 130.9,216.09 130.9,377.08 0,159.6 -43.41,284.53 -129.98,374.55 -86.58,90.25 -202.55,135.26 -347.46,135.26 -146.74,0 -263.63,-44.78 -350.21,-134.57 -86.58,-89.56 -129.98,-213.11 -129.98,-370.65zm205.3 -6.66c0,111.84 25.95,196.58 77.62,254.45 51.67,57.64 117.35,86.58 196.81,86.58 79.69,0 144.91,-28.71 196.12,-85.89 50.98,-57.41 76.47,-143.3 76.47,-257.9 0,-113.21 -24.8,-197.72 -74.63,-253.3 -49.61,-55.8 -115.52,-83.59 -197.96,-83.59 -82.21,0 -148.58,28.25 -198.87,84.51 -50.3,56.5 -75.56,141.46 -75.56,255.14zm907.8 -492.59l363.3 0c81.98,0 144.44,6.2 187.39,18.83 57.64,16.99 107.24,47.31 148.35,90.94 41.34,43.4 72.57,96.68 94.15,159.83 21.36,62.93 32.16,140.78 32.16,233.09 0,81.3 -10.11,151.11 -30.32,209.9 -24.57,71.88 -59.71,129.98 -105.41,174.3 -34.44,33.76 -81.06,59.94 -139.62,78.77 -43.86,14.01 -102.42,20.9 -175.91,20.9l-374.09 0 0 -986.56zm199.79 166.72l0 653.12 148.12 0c55.34,0 95.3,-3.22 119.88,-9.42 32.38,-8.04 59.01,-21.82 80.14,-41.11 21.36,-19.29 38.58,-50.98 51.9,-95.07 13.55,-44.09 20.21,-104.49 20.21,-180.73 0,-76.24 -6.66,-134.57 -20.21,-175.45 -13.32,-40.88 -32.15,-72.57 -56.26,-95.53 -24.11,-22.74 -54.66,-38.36 -91.86,-46.39 -27.56,-6.2 -81.98,-9.42 -162.82,-9.42l-89.1 0zm1684 819.84l-215.18 0 -85.2 -224.59 -395.68 0 -81.99 224.59 -211.27 0 383.05 -986.56 211.05 0 395.22 986.56zm-365.14 -391.32l-137.1 -365.14 -133.19 365.14 270.29 0zm1037.32 391.32l0 -415.2 -361.7 -571.36 233.55 0 233.32 390.63 227.13 -390.63 229.18 0 -361.69 572.74 0 413.82 -199.79 0zm1855.54 0l-215.18 0 -85.2 -224.59 -395.68 0 -81.99 224.59 -211.27 0 383.05 -986.56 211.05 0 395.22 986.56zm-365.14 -391.32l-137.1 -365.14 -133.19 365.14 270.29 0zm930.3 28.94l0 -166.73 428.52 0 0 393.62c-41.57,40.65 -101.96,76.24 -181.19,107.24 -79,30.78 -159.15,46.16 -240.44,46.16 -103.11,0 -192.9,-21.58 -269.61,-64.99 -76.47,-43.4 -134.11,-105.64 -172.69,-186.24 -38.58,-80.61 -57.87,-168.56 -57.87,-263.41 0,-102.88 21.59,-194.28 64.53,-274.42 43.17,-79.92 106.1,-141.47 189,-184.18 63.38,-32.84 141.92,-49.14 236.07,-49.14 122.41,0 218.17,25.72 287.06,77.16 68.67,51.67 112.99,122.63 132.74,213.57l-198.42 37.2c-13.77,-48.45 -39.95,-86.81 -78.31,-115.05 -38.12,-28.02 -85.88,-42.03 -143.29,-42.03 -86.81,0 -155.93,27.56 -207.15,82.91 -51.21,55.34 -76.93,137.32 -76.93,245.95 0,117.35 25.95,205.3 77.85,263.86 52.13,58.56 120.11,87.96 204.39,87.96 41.56,0 83.36,-8.27 125.16,-24.58 42.02,-16.3 77.85,-36.28 107.93,-59.71l0 -125.15 -227.35 0zm612.93 -624.18l199.79 0 0 534.62c0,84.96 2.52,139.85 7.35,164.88 8.49,40.42 28.47,73.03 60.16,97.37 31.92,24.57 75.33,36.75 130.44,36.75 55.81,0 98.06,-11.49 126.54,-34.68 28.47,-23.2 45.47,-51.44 51.21,-85.2 5.74,-33.76 8.73,-89.56 8.73,-167.64l0 -546.1 199.79 0 0 518.77c0,118.5 -5.28,202.32 -16.08,251.23 -10.79,48.92 -30.54,90.25 -59.47,124.01 -28.71,33.76 -67.29,60.4 -115.52,80.38 -48.45,19.98 -111.38,30.08 -189.23,30.08 -93.92,0 -165.11,-10.79 -213.57,-32.61 -48.45,-21.81 -86.8,-50.06 -115.05,-84.97 -28.25,-34.9 -46.62,-71.19 -55.57,-109.54 -13.09,-56.49 -19.52,-140.08 -19.52,-250.54l0 -526.81zm1883.79 986.56l-215.18 0 -85.2 -224.59 -395.68 0 -81.99 224.59 -211.27 0 383.05 -986.56 211.05 0 395.22 986.56zm-365.14 -391.32l-137.1 -365.14 -133.19 365.14 270.29 0z"/>
  </g>
 </g>
</svg>
