<?xml version="1.0" encoding="UTF-8"?>
<!DOCTYPE svg PUBLIC "-//W3C//DTD SVG 1.0//EN" "http://www.w3.org/TR/2001/REC-SVG-20010904/DTD/svg10.dtd">
<!-- Creator: CorelDRAW -->
<svg xmlns="http://www.w3.org/2000/svg" xml:space="preserve" width="89.8906mm" height="163.197mm" version="1.0" shape-rendering="geometricPrecision" text-rendering="geometricPrecision" image-rendering="optimizeQuality" fill-rule="evenodd" clip-rule="evenodd"
viewBox="0 0 8989 16320"
 xmlns:xlink="http://www.w3.org/1999/xlink"
 xmlns:xodm="http://www.corel.com/coreldraw/odm/2003">
 <g id="Capa_x0020_1">
  <metadata id="CorelCorpID_0Corel-Layer"/>
  <rect fill="none" stroke="black" stroke-width="17" stroke-miterlimit="22.9256" x="-616" y="-1103" width="10205" height="18491"/>
  <g id="_1794386055488">
   <path fill="#32AFB5" d="M2952 3042c-36,-16 -1366,560 -227,-169 358,-229 921,-548 1212,-83 447,715 -477,2677 -303,3028 333,-131 929,-2806 2019,-2843 1280,-43 -219,3413 404,3868l32 68 669 -315c170,362 -1640,1582 -1776,-42 -43,-511 364,-3006 314,-3068 -642,41 -951,2577 -1838,2941 -1749,716 -169,-2979 -506,-3384zm1177 -1999c-4875,663 -4899,8007 791,7869 2296,-56 3556,-2165 3492,-4288 -66,-2176 -2158,-3870 -4283,-3581z"/>
   <path fill="#FCFEFD" d="M2952 3042c337,405 -1243,4101 506,3384 887,-363 1197,-2899 1838,-2941 50,62 -357,2557 -314,3068 136,1624 1946,403 1776,42l-669 315 -32 -68c-623,-455 877,-3910 -404,-3868 -1090,36 -1687,2712 -2019,2843 -174,-350 750,-2312 303,-3028 -291,-465 -853,-146 -1212,83 -1139,729 191,153 227,169z"/>
   <g>
    <path fill="#39B1B6" d="M1854 11886c0,-662 986,-2968 -690,-2004 -355,204 -384,405 -24,195 387,-227 177,287 147,508 -40,292 -202,1483 -154,1688 1026,984 1375,-2010 1896,-1977 39,92 -304,1710 -272,2141 79,1079 1320,431 1270,55l-484 209 -27 -62c-304,-540 602,-2759 -280,-2693 -726,54 -1180,1893 -1382,1941z"/>
    <path fill="#36B1B5" d="M4919 11326c-7,-76 -6,-122 23,-197 25,-64 -5,12 21,-44 29,-61 41,-118 69,-192 37,-97 158,-362 276,-225 146,170 -111,663 -390,658zm607 918c43,-83 134,-166 194,-249 55,-76 111,-193 206,-221l79 247c260,1077 1968,66 2105,-565l9 -144 -118 75 -1097 845 -146 -86 358 -1514 140 17 90 301c840,107 -319,-1427 -1159,-153 -241,365 -139,588 -484,938 -147,149 -610,627 -825,523l21 -685c105,-102 274,-52 539,-390 119,-152 187,-580 -7,-697 -393,-239 -1031,-23 -1221,448 -513,1269 329,2258 1315,1312z"/>
   </g>
   <path fill="black" fill-rule="nonzero" d="M3178 14602c11,-20 27,-31 48,-31 8,0 16,2 24,5 20,7 31,20 31,38 0,8 -2,16 -8,26 -36,67 -91,124 -163,171 -72,46 -142,69 -210,69 -6,0 -13,0 -19,-1 -77,-5 -131,-40 -162,-107 -17,-37 -25,-83 -25,-139 0,-61 10,-133 30,-217 40,-165 97,-268 170,-309 30,-17 59,-25 86,-25 40,0 74,17 104,52 37,45 57,106 59,181l0 3c0,32 -15,51 -44,57 -5,1 -9,1 -13,1 -29,0 -44,-15 -45,-45 -2,-67 -20,-113 -52,-139 -9,-7 -17,-10 -25,-10 -18,0 -39,18 -62,55 -36,58 -63,143 -84,255 -9,50 -14,94 -14,131 0,54 9,94 28,119 18,26 44,39 75,39 28,0 61,-10 101,-29 81,-40 138,-90 171,-152z"/>
   <path id="_1" fill="black" fill-rule="nonzero" d="M3516 14089c45,-25 88,-38 127,-38 63,0 116,30 161,91 37,51 61,112 70,180 6,40 10,80 10,120 0,42 -4,85 -11,126 -16,88 -45,159 -89,212 -51,62 -117,93 -195,93l-1 0c-48,0 -90,-14 -127,-43 -38,-29 -65,-71 -80,-124 -10,-37 -16,-78 -16,-123 0,-33 3,-69 8,-108 14,-93 40,-166 77,-221 40,-57 88,-86 145,-86 13,0 26,2 39,4 23,6 35,16 35,32 0,8 -4,16 -12,24 -14,14 -31,21 -49,21 -5,0 -10,-1 -16,-2 -2,0 -3,-1 -5,-1 -20,0 -40,25 -61,74 -36,77 -55,151 -55,222 0,30 3,59 9,87 19,88 56,134 109,138 5,0 9,1 13,1 40,0 73,-18 99,-54 28,-38 47,-92 57,-162 7,-46 10,-89 10,-130 0,-86 -12,-153 -36,-202 -27,-59 -58,-89 -95,-89 -17,0 -36,6 -56,17 -10,5 -21,8 -32,8 -11,0 -22,-3 -34,-8 -15,-7 -23,-16 -23,-28 0,-12 8,-22 25,-31z"/>
   <path id="_2" fill="black" fill-rule="nonzero" d="M4539 13783c3,5 4,10 4,15l0 4c0,15 -8,27 -24,35 -7,4 -16,7 -26,8l-3 0c-18,0 -31,-8 -39,-25 -6,-16 -20,-30 -39,-42 -8,-4 -16,-6 -26,-6 -3,0 -7,0 -10,1 -10,1 -21,5 -33,13 -51,29 -79,94 -87,193 -8,103 -13,205 -17,306 9,-1 33,-4 70,-8 40,-4 65,-7 77,-8 11,-1 21,-2 28,-3l6 0c23,0 39,11 48,34 2,5 4,11 5,17l0 4c0,22 -14,35 -43,39 -25,3 -59,7 -101,11 -46,4 -76,7 -92,9l0 15c-1,50 -1,104 -1,162 0,179 5,397 15,653l0 4c0,33 -16,52 -47,59 -5,1 -11,2 -15,2 -29,0 -44,-21 -46,-62 -7,-191 -11,-376 -11,-557 0,-90 1,-179 3,-266 -9,1 -21,3 -34,4 -16,1 -27,2 -32,2 -5,0 -9,0 -11,0l-6 0c-24,0 -41,-12 -51,-35 -2,-5 -4,-11 -4,-17l0 -4c0,-22 14,-34 43,-38 23,-3 47,-5 70,-6l27 -3c2,-51 4,-106 8,-165 2,-37 5,-80 9,-130 4,-55 7,-83 7,-83 2,-43 18,-87 46,-134 30,-48 67,-79 109,-94 18,-6 36,-10 53,-12 6,0 11,-1 17,-1 69,0 120,35 153,106z"/>
   <path id="_3" fill="black" fill-rule="nonzero" d="M5080 13783c3,5 4,10 4,15l0 4c0,15 -8,27 -24,35 -7,4 -16,7 -26,8l-3 0c-18,0 -31,-8 -39,-25 -6,-16 -20,-30 -39,-42 -8,-4 -16,-6 -26,-6 -3,0 -7,0 -10,1 -10,1 -21,5 -33,13 -51,29 -79,94 -87,193 -8,103 -13,205 -17,306 9,-1 33,-4 70,-8 40,-4 65,-7 77,-8 11,-1 21,-2 28,-3l6 0c23,0 39,11 48,34 2,5 4,11 5,17l0 4c0,22 -14,35 -43,39 -25,3 -59,7 -101,11 -46,4 -76,7 -92,9l0 15c-1,50 -1,104 -1,162 0,179 5,397 15,653l0 4c0,33 -16,52 -47,59 -5,1 -11,2 -15,2 -29,0 -44,-21 -46,-62 -7,-191 -11,-376 -11,-557 0,-90 1,-179 3,-266 -9,1 -21,3 -34,4 -16,1 -27,2 -32,2 -5,0 -9,0 -11,0l-6 0c-24,0 -41,-12 -51,-35 -2,-5 -4,-11 -4,-17l0 -4c0,-22 14,-34 43,-38 23,-3 47,-5 70,-6l27 -3c2,-51 4,-106 8,-165 2,-37 5,-80 9,-130 4,-55 7,-83 7,-83 2,-43 18,-87 46,-134 30,-48 67,-79 109,-94 18,-6 36,-10 53,-12 6,0 11,-1 17,-1 69,0 120,35 153,106z"/>
   <path id="_4" fill="black" fill-rule="nonzero" d="M5549 14617c10,-21 25,-32 45,-33 8,0 16,1 24,4 20,7 30,21 30,41 0,7 -2,15 -7,24 -46,96 -120,163 -222,199 -35,13 -68,19 -99,19 -74,0 -134,-36 -179,-107 -34,-57 -52,-119 -52,-185 0,-45 8,-94 25,-144 35,-111 98,-203 188,-278 62,-52 119,-78 169,-78 17,0 32,2 47,8 35,13 56,39 62,80 1,8 1,16 1,24 0,22 -4,44 -12,66 -28,81 -77,147 -147,197 -58,42 -118,63 -181,63 -19,0 -31,0 -35,-1 -4,15 -6,35 -6,61 0,41 8,80 24,119 23,50 57,75 100,75 16,0 34,-4 54,-10 71,-24 127,-72 168,-143zm-189 -364c-56,57 -96,114 -120,169 44,-1 86,-17 126,-48 48,-35 83,-79 105,-134 9,-25 14,-44 14,-56 0,-4 0,-6 1,-6l-2 0c-32,0 -73,25 -124,74z"/>
   <path id="_5" fill="black" fill-rule="nonzero" d="M6212 14617c10,-21 25,-32 45,-33 8,0 16,1 24,4 20,7 30,21 30,41 0,7 -2,15 -7,24 -46,96 -120,163 -222,199 -35,13 -68,19 -99,19 -74,0 -134,-36 -179,-107 -34,-57 -52,-119 -52,-185 0,-45 8,-94 25,-144 35,-111 98,-203 188,-278 62,-52 119,-78 169,-78 17,0 32,2 47,8 35,13 56,39 62,80 1,8 1,16 1,24 0,22 -4,44 -12,66 -28,81 -77,147 -147,197 -58,42 -118,63 -181,63 -19,0 -31,0 -35,-1 -4,15 -6,35 -6,61 0,41 8,80 24,119 23,50 57,75 100,75 16,0 34,-4 54,-10 71,-24 127,-72 168,-143zm-189 -364c-56,57 -96,114 -120,169 44,-1 86,-17 126,-48 48,-35 83,-79 105,-134 9,-25 14,-44 14,-56 0,-4 0,-6 1,-6l-2 0c-32,0 -73,25 -124,74z"/>
   <path id="_6" fill="none" fill-rule="nonzero" stroke="#282829" stroke-width="17" stroke-miterlimit="22.9256" d="M3178 14602c11,-20 27,-31 48,-31 8,0 16,2 24,5 20,7 31,20 31,38 0,8 -2,16 -8,26 -36,67 -91,124 -163,171 -72,46 -142,69 -210,69 -6,0 -13,0 -19,-1 -77,-5 -131,-40 -162,-107 -17,-37 -25,-83 -25,-139 0,-61 10,-133 30,-217 40,-165 97,-268 170,-309 30,-17 59,-25 86,-25 40,0 74,17 104,52 37,45 57,106 59,181l0 3c0,32 -15,51 -44,57 -5,1 -9,1 -13,1 -29,0 -44,-15 -45,-45 -2,-67 -20,-113 -52,-139 -9,-7 -17,-10 -25,-10 -18,0 -39,18 -62,55 -36,58 -63,143 -84,255 -9,50 -14,94 -14,131 0,54 9,94 28,119 18,26 44,39 75,39 28,0 61,-10 101,-29 81,-40 138,-90 171,-152z"/>
   <path id="_7" fill="none" fill-rule="nonzero" stroke="#282829" stroke-width="17" stroke-miterlimit="22.9256" d="M3516 14089c45,-25 88,-38 127,-38 63,0 116,30 161,91 37,51 61,112 70,180 6,40 10,80 10,120 0,42 -4,85 -11,126 -16,88 -45,159 -89,212 -51,62 -117,93 -195,93l-1 0c-48,0 -90,-14 -127,-43 -38,-29 -65,-71 -80,-124 -10,-37 -16,-78 -16,-123 0,-33 3,-69 8,-108 14,-93 40,-166 77,-221 40,-57 88,-86 145,-86 13,0 26,2 39,4 23,6 35,16 35,32 0,8 -4,16 -12,24 -14,14 -31,21 -49,21 -5,0 -10,-1 -16,-2 -2,0 -3,-1 -5,-1 -20,0 -40,25 -61,74 -36,77 -55,151 -55,222 0,30 3,59 9,87 19,88 56,134 109,138 5,0 9,1 13,1 40,0 73,-18 99,-54 28,-38 47,-92 57,-162 7,-46 10,-89 10,-130 0,-86 -12,-153 -36,-202 -27,-59 -58,-89 -95,-89 -17,0 -36,6 -56,17 -10,5 -21,8 -32,8 -11,0 -22,-3 -34,-8 -15,-7 -23,-16 -23,-28 0,-12 8,-22 25,-31z"/>
   <path id="_8" fill="none" fill-rule="nonzero" stroke="#282829" stroke-width="17" stroke-miterlimit="22.9256" d="M4539 13783c3,5 4,10 4,15l0 4c0,15 -8,27 -24,35 -7,4 -16,7 -26,8l-3 0c-18,0 -31,-8 -39,-25 -6,-16 -20,-30 -39,-42 -8,-4 -16,-6 -26,-6 -3,0 -7,0 -10,1 -10,1 -21,5 -33,13 -51,29 -79,94 -87,193 -8,103 -13,205 -17,306 9,-1 33,-4 70,-8 40,-4 65,-7 77,-8 11,-1 21,-2 28,-3l6 0c23,0 39,11 48,34 2,5 4,11 5,17l0 4c0,22 -14,35 -43,39 -25,3 -59,7 -101,11 -46,4 -76,7 -92,9l0 15c-1,50 -1,104 -1,162 0,179 5,397 15,653l0 4c0,33 -16,52 -47,59 -5,1 -11,2 -15,2 -29,0 -44,-21 -46,-62 -7,-191 -11,-376 -11,-557 0,-90 1,-179 3,-266 -9,1 -21,3 -34,4 -16,1 -27,2 -32,2 -5,0 -9,0 -11,0l-6 0c-24,0 -41,-12 -51,-35 -2,-5 -4,-11 -4,-17l0 -4c0,-22 14,-34 43,-38 23,-3 47,-5 70,-6l27 -3c2,-51 4,-106 8,-165 2,-37 5,-80 9,-130 4,-55 7,-83 7,-83 2,-43 18,-87 46,-134 30,-48 67,-79 109,-94 18,-6 36,-10 53,-12 6,0 11,-1 17,-1 69,0 120,35 153,106z"/>
   <path id="_9" fill="none" fill-rule="nonzero" stroke="#282829" stroke-width="17" stroke-miterlimit="22.9256" d="M5080 13783c3,5 4,10 4,15l0 4c0,15 -8,27 -24,35 -7,4 -16,7 -26,8l-3 0c-18,0 -31,-8 -39,-25 -6,-16 -20,-30 -39,-42 -8,-4 -16,-6 -26,-6 -3,0 -7,0 -10,1 -10,1 -21,5 -33,13 -51,29 -79,94 -87,193 -8,103 -13,205 -17,306 9,-1 33,-4 70,-8 40,-4 65,-7 77,-8 11,-1 21,-2 28,-3l6 0c23,0 39,11 48,34 2,5 4,11 5,17l0 4c0,22 -14,35 -43,39 -25,3 -59,7 -101,11 -46,4 -76,7 -92,9l0 15c-1,50 -1,104 -1,162 0,179 5,397 15,653l0 4c0,33 -16,52 -47,59 -5,1 -11,2 -15,2 -29,0 -44,-21 -46,-62 -7,-191 -11,-376 -11,-557 0,-90 1,-179 3,-266 -9,1 -21,3 -34,4 -16,1 -27,2 -32,2 -5,0 -9,0 -11,0l-6 0c-24,0 -41,-12 -51,-35 -2,-5 -4,-11 -4,-17l0 -4c0,-22 14,-34 43,-38 23,-3 47,-5 70,-6l27 -3c2,-51 4,-106 8,-165 2,-37 5,-80 9,-130 4,-55 7,-83 7,-83 2,-43 18,-87 46,-134 30,-48 67,-79 109,-94 18,-6 36,-10 53,-12 6,0 11,-1 17,-1 69,0 120,35 153,106z"/>
   <path id="_10" fill="none" fill-rule="nonzero" stroke="#282829" stroke-width="17" stroke-miterlimit="22.9256" d="M5549 14617c10,-21 25,-32 45,-33 8,0 16,1 24,4 20,7 30,21 30,41 0,7 -2,15 -7,24 -46,96 -120,163 -222,199 -35,13 -68,19 -99,19 -74,0 -134,-36 -179,-107 -34,-57 -52,-119 -52,-185 0,-45 8,-94 25,-144 35,-111 98,-203 188,-278 62,-52 119,-78 169,-78 17,0 32,2 47,8 35,13 56,39 62,80 1,8 1,16 1,24 0,22 -4,44 -12,66 -28,81 -77,147 -147,197 -58,42 -118,63 -181,63 -19,0 -31,0 -35,-1 -4,15 -6,35 -6,61 0,41 8,80 24,119 23,50 57,75 100,75 16,0 34,-4 54,-10 71,-24 127,-72 168,-143zm-189 -364c-56,57 -96,114 -120,169 44,-1 86,-17 126,-48 48,-35 83,-79 105,-134 9,-25 14,-44 14,-56 0,-4 0,-6 1,-6l-2 0c-32,0 -73,25 -124,74z"/>
   <path id="_11" fill="none" fill-rule="nonzero" stroke="#282829" stroke-width="17" stroke-miterlimit="22.9256" d="M6212 14617c10,-21 25,-32 45,-33 8,0 16,1 24,4 20,7 30,21 30,41 0,7 -2,15 -7,24 -46,96 -120,163 -222,199 -35,13 -68,19 -99,19 -74,0 -134,-36 -179,-107 -34,-57 -52,-119 -52,-185 0,-45 8,-94 25,-144 35,-111 98,-203 188,-278 62,-52 119,-78 169,-78 17,0 32,2 47,8 35,13 56,39 62,80 1,8 1,16 1,24 0,22 -4,44 -12,66 -28,81 -77,147 -147,197 -58,42 -118,63 -181,63 -19,0 -31,0 -35,-1 -4,15 -6,35 -6,61 0,41 8,80 24,119 23,50 57,75 100,75 16,0 34,-4 54,-10 71,-24 127,-72 168,-143zm-189 -364c-56,57 -96,114 -120,169 44,-1 86,-17 126,-48 48,-35 83,-79 105,-134 9,-25 14,-44 14,-56 0,-4 0,-6 1,-6l-2 0c-32,0 -73,25 -124,74z"/>
  </g>
 </g>
</svg>
