<?xml version="1.0" encoding="UTF-8"?>
<!DOCTYPE svg PUBLIC "-//W3C//DTD SVG 1.0//EN" "http://www.w3.org/TR/2001/REC-SVG-20010904/DTD/svg10.dtd">
<!-- Creator: CorelDRAW -->
<svg xmlns="http://www.w3.org/2000/svg" xml:space="preserve" width="84.6666mm" height="84.6666mm" version="1.0" shape-rendering="geometricPrecision" text-rendering="geometricPrecision" image-rendering="optimizeQuality" fill-rule="evenodd" clip-rule="evenodd"
viewBox="0 0 8467 8467"
 xmlns:xlink="http://www.w3.org/1999/xlink"
 xmlns:xodm="http://www.corel.com/coreldraw/odm/2003">
 <g id="Capa_x0020_1">
  <metadata id="CorelCorpID_0Corel-Layer"/>
  <path fill="black" d="M2659 2272c-37,-16 -1398,573 -232,-173 367,-235 943,-561 1241,-85 458,732 -488,2741 -310,3099 341,-134 951,-2873 2067,-2910 1311,-44 -224,3494 413,3959l33 69 685 -322c174,370 -1679,1620 -1818,-43 -44,-523 373,-3077 322,-3141 -657,42 -974,2638 -1882,3010 -1791,733 -173,-3049 -518,-3464zm1205 -2046c-4991,679 -5015,8197 810,8055 2351,-57 3640,-2216 3574,-4390 -68,-2227 -2209,-3961 -4385,-3665z"/>
 </g>
</svg>
