<?xml version="1.0" encoding="UTF-8"?>
<!DOCTYPE svg PUBLIC "-//W3C//DTD SVG 1.0//EN" "http://www.w3.org/TR/2001/REC-SVG-20010904/DTD/svg10.dtd">
<!-- Creator: CorelDRAW -->
<svg xmlns="http://www.w3.org/2000/svg" xml:space="preserve" width="43.743mm" height="22.672mm" version="1.0" shape-rendering="geometricPrecision" text-rendering="geometricPrecision" image-rendering="optimizeQuality" fill-rule="evenodd" clip-rule="evenodd"
viewBox="0 0 4374 2267"
 xmlns:xlink="http://www.w3.org/1999/xlink"
 xmlns:xodm="http://www.corel.com/coreldraw/odm/2003">
 <g id="Capa_x0020_1">
  <metadata id="CorelCorpID_0Corel-Layer"/>
  <rect fill="none" stroke="black" stroke-width="17" stroke-miterlimit="22.9256" x="-488" y="-242" width="5351" height="2768"/>
  <g id="_1794512242720">
   <path fill="#32AFB5" d="M720 632c-10,-4 -363,149 -60,-45 95,-61 244,-146 322,-22 119,190 -127,711 -80,804 88,-35 247,-745 536,-755 340,-11 -58,906 107,1027l8 18 178 -84c45,96 -435,420 -471,-11 -11,-136 97,-798 83,-814 -170,11 -252,684 -488,781 -464,190 -45,-791 -134,-898zm312 -531c-1294,176 -1301,2125 210,2089 610,-15 944,-575 927,-1138 -18,-578 -573,-1027 -1137,-950z"/>
   <path fill="#FCFEFD" d="M720 632c90,108 -330,1089 134,898 235,-96 318,-770 488,-781 13,16 -95,679 -83,814 36,431 517,107 471,11l-178 84 -8 -18c-165,-121 233,-1038 -107,-1027 -289,10 -448,720 -536,755 -46,-93 199,-614 80,-804 -77,-124 -227,-39 -322,22 -302,194 51,41 60,45z"/>
   <g>
    <path fill="#39B1B6" d="M2626 968c0,-176 262,-788 -183,-532 -94,54 -102,108 -6,52 103,-60 47,76 39,135 -11,78 -54,394 -41,448 272,261 365,-534 503,-525 10,25 -81,454 -72,568 21,286 350,114 337,15l-129 55 -7 -17c-81,-143 160,-732 -74,-715 -193,14 -313,502 -367,515z"/>
    <path fill="#36B1B5" d="M3440 820c-2,-20 -2,-32 6,-52 7,-17 -1,3 6,-12 8,-16 11,-31 18,-51 10,-26 42,-96 73,-60 39,45 -29,176 -103,175zm161 244c11,-22 36,-44 52,-66 14,-20 29,-51 55,-59l21 66c69,286 522,17 559,-150l2 -38 -31 20 -291 224 -39 -23 95 -402 37 4 24 80c223,28 -85,-379 -308,-41 -64,97 -37,156 -128,249 -39,40 -162,167 -219,139l6 -182c28,-27 73,-14 143,-104 32,-40 50,-154 -2,-185 -104,-63 -274,-6 -324,119 -136,337 87,599 349,348z"/>
   </g>
   <path fill="black" fill-rule="nonzero" d="M3023 1715c3,-5 6,-7 11,-7 2,0 4,0 6,1 5,2 7,5 7,9 0,2 -1,4 -2,6 -8,16 -21,29 -38,39 -17,11 -33,16 -49,16 -1,0 -3,0 -4,0 -18,-1 -30,-9 -38,-25 -4,-9 -6,-19 -6,-32 0,-14 2,-31 7,-50 9,-38 22,-62 39,-72 7,-4 14,-6 20,-6 9,0 17,4 24,12 9,11 13,25 14,42l0 1c0,7 -3,12 -10,13 -1,0 -2,0 -3,0 -7,0 -10,-3 -10,-10 -1,-16 -5,-26 -12,-32 -2,-2 -4,-2 -6,-2 -4,0 -9,4 -14,13 -8,13 -15,33 -19,59 -2,12 -3,22 -3,30 0,13 2,22 7,28 4,6 10,9 17,9 6,0 14,-2 23,-7 19,-9 32,-21 40,-35z"/>
   <path id="_1" fill="black" fill-rule="nonzero" d="M3101 1596c11,-6 20,-9 29,-9 14,0 27,7 37,21 9,12 14,26 16,42 1,9 2,19 2,28 0,10 -1,20 -3,29 -4,20 -11,37 -21,49 -12,14 -27,22 -45,22l0 0c-11,0 -21,-3 -29,-10 -9,-7 -15,-16 -19,-29 -2,-9 -4,-18 -4,-28 0,-8 1,-16 2,-25 3,-21 9,-39 18,-51 9,-13 20,-20 33,-20 3,0 6,0 9,1 5,1 8,4 8,7 0,2 -1,4 -3,6 -3,3 -7,5 -11,5 -1,0 -2,0 -4,0 0,0 -1,0 -1,0 -5,0 -9,6 -14,17 -8,18 -13,35 -13,51 0,7 1,14 2,20 4,20 13,31 25,32 1,0 2,0 3,0 9,0 17,-4 23,-13 6,-9 11,-21 13,-38 2,-11 2,-21 2,-30 0,-20 -3,-35 -8,-47 -6,-14 -14,-21 -22,-21 -4,0 -8,1 -13,4 -2,1 -5,2 -7,2 -3,0 -5,-1 -8,-2 -4,-2 -5,-4 -5,-7 0,-3 2,-5 6,-7z"/>
   <path id="_2" fill="black" fill-rule="nonzero" d="M3338 1525c1,1 1,2 1,4l0 1c0,3 -2,6 -5,8 -2,1 -4,2 -6,2l-1 0c-4,0 -7,-2 -9,-6 -1,-4 -5,-7 -9,-10 -2,-1 -4,-1 -6,-1 -1,0 -2,0 -2,0 -2,0 -5,1 -8,3 -12,7 -18,22 -20,45 -2,24 -3,47 -4,71 2,0 8,-1 16,-2 9,-1 15,-2 18,-2 3,0 5,-1 6,-1l1 0c5,0 9,3 11,8 1,1 1,2 1,4l0 1c0,5 -3,8 -10,9 -6,1 -14,2 -23,2 -11,1 -18,2 -21,2l0 4c0,12 0,24 0,38 0,42 1,92 3,151l0 1c0,8 -4,12 -11,14 -1,0 -2,0 -4,0 -7,0 -10,-5 -11,-14 -2,-44 -3,-87 -3,-129 0,-21 0,-41 1,-62 -2,0 -5,1 -8,1 -4,0 -6,0 -7,1 -1,0 -2,0 -3,0l-1 0c-5,0 -9,-3 -12,-8 0,-1 -1,-2 -1,-4l0 -1c0,-5 3,-8 10,-9 5,-1 11,-1 16,-1l6 -1c0,-12 1,-25 2,-38 1,-9 1,-19 2,-30 1,-13 2,-19 2,-19 1,-10 4,-20 11,-31 7,-11 15,-18 25,-22 4,-1 8,-2 12,-3 1,0 3,0 4,0 16,0 28,8 35,24z"/>
   <path id="_3" fill="black" fill-rule="nonzero" d="M3463 1525c1,1 1,2 1,4l0 1c0,3 -2,6 -5,8 -2,1 -4,2 -6,2l-1 0c-4,0 -7,-2 -9,-6 -1,-4 -5,-7 -9,-10 -2,-1 -4,-1 -6,-1 -1,0 -2,0 -2,0 -2,0 -5,1 -8,3 -12,7 -18,22 -20,45 -2,24 -3,47 -4,71 2,0 8,-1 16,-2 9,-1 15,-2 18,-2 3,0 5,-1 6,-1l1 0c5,0 9,3 11,8 1,1 1,2 1,4l0 1c0,5 -3,8 -10,9 -6,1 -14,2 -23,2 -11,1 -18,2 -21,2l0 4c0,12 0,24 0,38 0,42 1,92 3,151l0 1c0,8 -4,12 -11,14 -1,0 -2,0 -4,0 -7,0 -10,-5 -11,-14 -2,-44 -3,-87 -3,-129 0,-21 0,-41 1,-62 -2,0 -5,1 -8,1 -4,0 -6,0 -7,1 -1,0 -2,0 -3,0l-1 0c-5,0 -9,-3 -12,-8 0,-1 -1,-2 -1,-4l0 -1c0,-5 3,-8 10,-9 5,-1 11,-1 16,-1l6 -1c0,-12 1,-25 2,-38 1,-9 1,-19 2,-30 1,-13 2,-19 2,-19 1,-10 4,-20 11,-31 7,-11 15,-18 25,-22 4,-1 8,-2 12,-3 1,0 3,0 4,0 16,0 28,8 35,24z"/>
   <path id="_4" fill="black" fill-rule="nonzero" d="M3572 1718c2,-5 6,-7 10,-8 2,0 4,0 6,1 5,2 7,5 7,10 0,2 -1,4 -2,6 -11,22 -28,38 -51,46 -8,3 -16,4 -23,4 -17,0 -31,-8 -41,-25 -8,-13 -12,-28 -12,-43 0,-11 2,-22 6,-33 8,-26 23,-47 44,-64 14,-12 27,-18 39,-18 4,0 7,1 11,2 8,3 13,9 14,18 0,2 0,4 0,5 0,5 -1,10 -3,15 -7,19 -18,34 -34,46 -13,10 -27,15 -42,15 -4,0 -7,0 -8,0 -1,3 -1,8 -1,14 0,9 2,19 6,28 5,12 13,17 23,17 4,0 8,-1 13,-2 16,-6 29,-17 39,-33zm-44 -84c-13,13 -22,26 -28,39 10,0 20,-4 29,-11 11,-8 19,-18 24,-31 2,-6 3,-10 3,-13 0,-1 0,-1 0,-1l0 0c-7,0 -17,6 -29,17z"/>
   <path id="_5" fill="black" fill-rule="nonzero" d="M3725 1718c2,-5 6,-7 10,-8 2,0 4,0 6,1 5,2 7,5 7,10 0,2 -1,4 -2,6 -11,22 -28,38 -51,46 -8,3 -16,4 -23,4 -17,0 -31,-8 -41,-25 -8,-13 -12,-28 -12,-43 0,-11 2,-22 6,-33 8,-26 23,-47 44,-64 14,-12 27,-18 39,-18 4,0 7,1 11,2 8,3 13,9 14,18 0,2 0,4 0,5 0,5 -1,10 -3,15 -7,19 -18,34 -34,46 -13,10 -27,15 -42,15 -4,0 -7,0 -8,0 -1,3 -1,8 -1,14 0,9 2,19 6,28 5,12 13,17 23,17 4,0 8,-1 13,-2 16,-6 29,-17 39,-33zm-44 -84c-13,13 -22,26 -28,39 10,0 20,-4 29,-11 11,-8 19,-18 24,-31 2,-6 3,-10 3,-13 0,-1 0,-1 0,-1l0 0c-7,0 -17,6 -29,17z"/>
   <path id="_6" fill="none" fill-rule="nonzero" stroke="black" stroke-width="8" stroke-miterlimit="22.9256" d="M3023 1715c3,-5 6,-7 11,-7 2,0 4,0 6,1 5,2 7,5 7,9 0,2 -1,4 -2,6 -8,16 -21,29 -38,39 -17,11 -33,16 -49,16 -1,0 -3,0 -4,0 -18,-1 -30,-9 -38,-25 -4,-9 -6,-19 -6,-32 0,-14 2,-31 7,-50 9,-38 22,-62 39,-72 7,-4 14,-6 20,-6 9,0 17,4 24,12 9,11 13,25 14,42l0 1c0,7 -3,12 -10,13 -1,0 -2,0 -3,0 -7,0 -10,-3 -10,-10 -1,-16 -5,-26 -12,-32 -2,-2 -4,-2 -6,-2 -4,0 -9,4 -14,13 -8,13 -15,33 -19,59 -2,12 -3,22 -3,30 0,13 2,22 7,28 4,6 10,9 17,9 6,0 14,-2 23,-7 19,-9 32,-21 40,-35z"/>
   <path id="_7" fill="none" fill-rule="nonzero" stroke="black" stroke-width="8" stroke-miterlimit="22.9256" d="M3101 1596c11,-6 20,-9 29,-9 14,0 27,7 37,21 9,12 14,26 16,42 1,9 2,19 2,28 0,10 -1,20 -3,29 -4,20 -11,37 -21,49 -12,14 -27,22 -45,22l0 0c-11,0 -21,-3 -29,-10 -9,-7 -15,-16 -19,-29 -2,-9 -4,-18 -4,-28 0,-8 1,-16 2,-25 3,-21 9,-39 18,-51 9,-13 20,-20 33,-20 3,0 6,0 9,1 5,1 8,4 8,7 0,2 -1,4 -3,6 -3,3 -7,5 -11,5 -1,0 -2,0 -4,0 0,0 -1,0 -1,0 -5,0 -9,6 -14,17 -8,18 -13,35 -13,51 0,7 1,14 2,20 4,20 13,31 25,32 1,0 2,0 3,0 9,0 17,-4 23,-13 6,-9 11,-21 13,-38 2,-11 2,-21 2,-30 0,-20 -3,-35 -8,-47 -6,-14 -14,-21 -22,-21 -4,0 -8,1 -13,4 -2,1 -5,2 -7,2 -3,0 -5,-1 -8,-2 -4,-2 -5,-4 -5,-7 0,-3 2,-5 6,-7z"/>
   <path id="_8" fill="none" fill-rule="nonzero" stroke="black" stroke-width="8" stroke-miterlimit="22.9256" d="M3338 1525c1,1 1,2 1,4l0 1c0,3 -2,6 -5,8 -2,1 -4,2 -6,2l-1 0c-4,0 -7,-2 -9,-6 -1,-4 -5,-7 -9,-10 -2,-1 -4,-1 -6,-1 -1,0 -2,0 -2,0 -2,0 -5,1 -8,3 -12,7 -18,22 -20,45 -2,24 -3,47 -4,71 2,0 8,-1 16,-2 9,-1 15,-2 18,-2 3,0 5,-1 6,-1l1 0c5,0 9,3 11,8 1,1 1,2 1,4l0 1c0,5 -3,8 -10,9 -6,1 -14,2 -23,2 -11,1 -18,2 -21,2l0 4c0,12 0,24 0,38 0,42 1,92 3,151l0 1c0,8 -4,12 -11,14 -1,0 -2,0 -4,0 -7,0 -10,-5 -11,-14 -2,-44 -3,-87 -3,-129 0,-21 0,-41 1,-62 -2,0 -5,1 -8,1 -4,0 -6,0 -7,1 -1,0 -2,0 -3,0l-1 0c-5,0 -9,-3 -12,-8 0,-1 -1,-2 -1,-4l0 -1c0,-5 3,-8 10,-9 5,-1 11,-1 16,-1l6 -1c0,-12 1,-25 2,-38 1,-9 1,-19 2,-30 1,-13 2,-19 2,-19 1,-10 4,-20 11,-31 7,-11 15,-18 25,-22 4,-1 8,-2 12,-3 1,0 3,0 4,0 16,0 28,8 35,24z"/>
   <path id="_9" fill="none" fill-rule="nonzero" stroke="black" stroke-width="8" stroke-miterlimit="22.9256" d="M3463 1525c1,1 1,2 1,4l0 1c0,3 -2,6 -5,8 -2,1 -4,2 -6,2l-1 0c-4,0 -7,-2 -9,-6 -1,-4 -5,-7 -9,-10 -2,-1 -4,-1 -6,-1 -1,0 -2,0 -2,0 -2,0 -5,1 -8,3 -12,7 -18,22 -20,45 -2,24 -3,47 -4,71 2,0 8,-1 16,-2 9,-1 15,-2 18,-2 3,0 5,-1 6,-1l1 0c5,0 9,3 11,8 1,1 1,2 1,4l0 1c0,5 -3,8 -10,9 -6,1 -14,2 -23,2 -11,1 -18,2 -21,2l0 4c0,12 0,24 0,38 0,42 1,92 3,151l0 1c0,8 -4,12 -11,14 -1,0 -2,0 -4,0 -7,0 -10,-5 -11,-14 -2,-44 -3,-87 -3,-129 0,-21 0,-41 1,-62 -2,0 -5,1 -8,1 -4,0 -6,0 -7,1 -1,0 -2,0 -3,0l-1 0c-5,0 -9,-3 -12,-8 0,-1 -1,-2 -1,-4l0 -1c0,-5 3,-8 10,-9 5,-1 11,-1 16,-1l6 -1c0,-12 1,-25 2,-38 1,-9 1,-19 2,-30 1,-13 2,-19 2,-19 1,-10 4,-20 11,-31 7,-11 15,-18 25,-22 4,-1 8,-2 12,-3 1,0 3,0 4,0 16,0 28,8 35,24z"/>
   <path id="_10" fill="none" fill-rule="nonzero" stroke="black" stroke-width="8" stroke-miterlimit="22.9256" d="M3572 1718c2,-5 6,-7 10,-8 2,0 4,0 6,1 5,2 7,5 7,10 0,2 -1,4 -2,6 -11,22 -28,38 -51,46 -8,3 -16,4 -23,4 -17,0 -31,-8 -41,-25 -8,-13 -12,-28 -12,-43 0,-11 2,-22 6,-33 8,-26 23,-47 44,-64 14,-12 27,-18 39,-18 4,0 7,1 11,2 8,3 13,9 14,18 0,2 0,4 0,5 0,5 -1,10 -3,15 -7,19 -18,34 -34,46 -13,10 -27,15 -42,15 -4,0 -7,0 -8,0 -1,3 -1,8 -1,14 0,9 2,19 6,28 5,12 13,17 23,17 4,0 8,-1 13,-2 16,-6 29,-17 39,-33zm-44 -84c-13,13 -22,26 -28,39 10,0 20,-4 29,-11 11,-8 19,-18 24,-31 2,-6 3,-10 3,-13 0,-1 0,-1 0,-1l0 0c-7,0 -17,6 -29,17z"/>
   <path id="_11" fill="none" fill-rule="nonzero" stroke="black" stroke-width="8" stroke-miterlimit="22.9256" d="M3725 1718c2,-5 6,-7 10,-8 2,0 4,0 6,1 5,2 7,5 7,10 0,2 -1,4 -2,6 -11,22 -28,38 -51,46 -8,3 -16,4 -23,4 -17,0 -31,-8 -41,-25 -8,-13 -12,-28 -12,-43 0,-11 2,-22 6,-33 8,-26 23,-47 44,-64 14,-12 27,-18 39,-18 4,0 7,1 11,2 8,3 13,9 14,18 0,2 0,4 0,5 0,5 -1,10 -3,15 -7,19 -18,34 -34,46 -13,10 -27,15 -42,15 -4,0 -7,0 -8,0 -1,3 -1,8 -1,14 0,9 2,19 6,28 5,12 13,17 23,17 4,0 8,-1 13,-2 16,-6 29,-17 39,-33zm-44 -84c-13,13 -22,26 -28,39 10,0 20,-4 29,-11 11,-8 19,-18 24,-31 2,-6 3,-10 3,-13 0,-1 0,-1 0,-1l0 0c-7,0 -17,6 -29,17z"/>
  </g>
 </g>
</svg>
