<?xml version="1.0" encoding="UTF-8"?>
<!DOCTYPE svg PUBLIC "-//W3C//DTD SVG 1.0//EN" "http://www.w3.org/TR/2001/REC-SVG-20010904/DTD/svg10.dtd">
<!-- Creator: CorelDRAW -->
<svg xmlns="http://www.w3.org/2000/svg" xml:space="preserve" width="43.743mm" height="22.672mm" version="1.0" shape-rendering="geometricPrecision" text-rendering="geometricPrecision" image-rendering="optimizeQuality" fill-rule="evenodd" clip-rule="evenodd"
viewBox="0 0 4374 2267"
 xmlns:xlink="http://www.w3.org/1999/xlink"
 xmlns:xodm="http://www.corel.com/coreldraw/odm/2003">
 <g id="Capa_x0020_1">
  <metadata id="CorelCorpID_0Corel-Layer"/>
  <rect fill="none" stroke="black" stroke-width="17" stroke-miterlimit="22.9256" x="-488" y="-242" width="5351" height="2768"/>
  <g id="_1794355493184">
   <path fill="black" d="M723 630c-10,-4 -364,149 -61,-45 96,-61 246,-146 323,-22 119,191 -127,714 -81,808 89,-35 248,-749 539,-758 342,-11 -58,910 108,1032l9 18 179 -84c45,96 -438,422 -474,-11 -11,-136 97,-802 84,-818 -171,11 -254,688 -490,784 -467,191 -45,-795 -135,-903zm314 -533c-1300,177 -1307,2136 211,2099 613,-15 949,-577 931,-1144 -18,-580 -576,-1032 -1143,-955z"/>
   <g>
    <path fill="black" d="M2618 969c0,-176 263,-792 -184,-535 -95,54 -102,108 -6,52 103,-60 47,77 39,135 -11,78 -54,396 -41,450 274,262 367,-536 506,-527 11,25 -81,456 -73,571 21,288 352,115 339,15l-129 56 -7 -17c-81,-144 161,-736 -75,-718 -194,14 -315,505 -369,518z"/>
    <path fill="black" d="M3436 820c-2,-20 -2,-32 6,-53 7,-17 -1,3 6,-12 8,-16 11,-32 18,-51 10,-26 42,-97 74,-60 39,45 -30,177 -104,175zm162 245c11,-22 36,-44 52,-66 15,-20 30,-52 55,-59l21 66c69,287 525,18 562,-151l2 -38 -32 20 -293 225 -39 -23 96 -404 37 4 24 80c224,29 -85,-381 -309,-41 -64,97 -37,157 -129,250 -39,40 -163,167 -220,139l6 -183c28,-27 73,-14 144,-104 32,-41 50,-155 -2,-186 -105,-64 -275,-6 -326,119 -137,339 88,602 351,350z"/>
   </g>
   <path fill="black" fill-rule="nonzero" d="M3018 1715c3,-5 6,-7 11,-7 2,0 4,0 6,1 5,2 7,5 7,9 0,2 -1,4 -2,6 -8,16 -21,29 -38,39 -17,11 -33,16 -49,16 -1,0 -3,0 -4,0 -18,-1 -30,-9 -38,-25 -4,-9 -6,-19 -6,-32 0,-14 2,-31 7,-50 9,-38 22,-62 39,-72 7,-4 14,-6 20,-6 9,0 17,4 24,12 9,11 13,25 14,42l0 1c0,7 -3,12 -10,13 -1,0 -2,0 -3,0 -7,0 -10,-3 -10,-10 -1,-16 -5,-26 -12,-32 -2,-2 -4,-2 -6,-2 -4,0 -9,4 -14,13 -8,13 -15,33 -19,59 -2,12 -3,22 -3,30 0,13 2,22 7,28 4,6 10,9 17,9 6,0 14,-2 23,-7 19,-9 32,-21 40,-35z"/>
   <path id="_1" fill="black" fill-rule="nonzero" d="M3096 1596c11,-6 20,-9 29,-9 14,0 27,7 37,21 9,12 14,26 16,42 1,9 2,19 2,28 0,10 -1,20 -3,29 -4,20 -11,37 -21,49 -12,14 -27,22 -45,22l0 0c-11,0 -21,-3 -29,-10 -9,-7 -15,-16 -19,-29 -2,-9 -4,-18 -4,-28 0,-8 1,-16 2,-25 3,-21 9,-39 18,-51 9,-13 20,-20 33,-20 3,0 6,0 9,1 5,1 8,4 8,7 0,2 -1,4 -3,6 -3,3 -7,5 -11,5 -1,0 -2,0 -4,0 0,0 -1,0 -1,0 -5,0 -9,6 -14,17 -8,18 -13,35 -13,51 0,7 1,14 2,20 4,20 13,31 25,32 1,0 2,0 3,0 9,0 17,-4 23,-13 6,-9 11,-21 13,-38 2,-11 2,-21 2,-30 0,-20 -3,-35 -8,-47 -6,-14 -14,-21 -22,-21 -4,0 -8,1 -13,4 -2,1 -5,2 -7,2 -3,0 -5,-1 -8,-2 -4,-2 -5,-4 -5,-7 0,-3 2,-5 6,-7z"/>
   <path id="_2" fill="black" fill-rule="nonzero" d="M3333 1525c1,1 1,2 1,4l0 1c0,3 -2,6 -5,8 -2,1 -4,2 -6,2l-1 0c-4,0 -7,-2 -9,-6 -1,-4 -5,-7 -9,-10 -2,-1 -4,-1 -6,-1 -1,0 -2,0 -2,0 -2,0 -5,1 -8,3 -12,7 -18,22 -20,45 -2,24 -3,47 -4,71 2,0 8,-1 16,-2 9,-1 15,-2 18,-2 3,0 5,-1 6,-1l1 0c5,0 9,3 11,8 1,1 1,2 1,4l0 1c0,5 -3,8 -10,9 -6,1 -14,2 -23,2 -11,1 -18,2 -21,2l0 4c0,12 0,24 0,38 0,42 1,92 3,151l0 1c0,8 -4,12 -11,14 -1,0 -2,0 -4,0 -7,0 -10,-5 -11,-14 -2,-44 -3,-87 -3,-129 0,-21 0,-41 1,-62 -2,0 -5,1 -8,1 -4,0 -6,0 -7,1 -1,0 -2,0 -3,0l-1 0c-5,0 -9,-3 -12,-8 0,-1 -1,-2 -1,-4l0 -1c0,-5 3,-8 10,-9 5,-1 11,-1 16,-1l6 -1c0,-12 1,-25 2,-38 1,-9 1,-19 2,-30 1,-13 2,-19 2,-19 1,-10 4,-20 11,-31 7,-11 15,-18 25,-22 4,-1 8,-2 12,-3 1,0 3,0 4,0 16,0 28,8 35,24z"/>
   <path id="_3" fill="black" fill-rule="nonzero" d="M3458 1525c1,1 1,2 1,4l0 1c0,3 -2,6 -5,8 -2,1 -4,2 -6,2l-1 0c-4,0 -7,-2 -9,-6 -1,-4 -5,-7 -9,-10 -2,-1 -4,-1 -6,-1 -1,0 -2,0 -2,0 -2,0 -5,1 -8,3 -12,7 -18,22 -20,45 -2,24 -3,47 -4,71 2,0 8,-1 16,-2 9,-1 15,-2 18,-2 3,0 5,-1 6,-1l1 0c5,0 9,3 11,8 1,1 1,2 1,4l0 1c0,5 -3,8 -10,9 -6,1 -14,2 -23,2 -11,1 -18,2 -21,2l0 4c0,12 0,24 0,38 0,42 1,92 3,151l0 1c0,8 -4,12 -11,14 -1,0 -2,0 -4,0 -7,0 -10,-5 -11,-14 -2,-44 -3,-87 -3,-129 0,-21 0,-41 1,-62 -2,0 -5,1 -8,1 -4,0 -6,0 -7,1 -1,0 -2,0 -3,0l-1 0c-5,0 -9,-3 -12,-8 0,-1 -1,-2 -1,-4l0 -1c0,-5 3,-8 10,-9 5,-1 11,-1 16,-1l6 -1c0,-12 1,-25 2,-38 1,-9 1,-19 2,-30 1,-13 2,-19 2,-19 1,-10 4,-20 11,-31 7,-11 15,-18 25,-22 4,-1 8,-2 12,-3 1,0 3,0 4,0 16,0 28,8 35,24z"/>
   <path id="_4" fill="black" fill-rule="nonzero" d="M3567 1718c2,-5 6,-7 10,-8 2,0 4,0 6,1 5,2 7,5 7,10 0,2 -1,4 -2,6 -11,22 -28,38 -51,46 -8,3 -16,4 -23,4 -17,0 -31,-8 -41,-25 -8,-13 -12,-28 -12,-43 0,-11 2,-22 6,-33 8,-26 23,-47 44,-64 14,-12 27,-18 39,-18 4,0 7,1 11,2 8,3 13,9 14,18 0,2 0,4 0,5 0,5 -1,10 -3,15 -7,19 -18,34 -34,46 -13,10 -27,15 -42,15 -4,0 -7,0 -8,0 -1,3 -1,8 -1,14 0,9 2,19 6,28 5,12 13,17 23,17 4,0 8,-1 13,-2 16,-6 29,-17 39,-33zm-44 -84c-13,13 -22,26 -28,39 10,0 20,-4 29,-11 11,-8 19,-18 24,-31 2,-6 3,-10 3,-13 0,-1 0,-1 0,-1l0 0c-7,0 -17,6 -29,17z"/>
   <path id="_5" fill="black" fill-rule="nonzero" d="M3721 1718c2,-5 6,-7 10,-8 2,0 4,0 6,1 5,2 7,5 7,10 0,2 -1,4 -2,6 -11,22 -28,38 -51,46 -8,3 -16,4 -23,4 -17,0 -31,-8 -41,-25 -8,-13 -12,-28 -12,-43 0,-11 2,-22 6,-33 8,-26 23,-47 44,-64 14,-12 27,-18 39,-18 4,0 7,1 11,2 8,3 13,9 14,18 0,2 0,4 0,5 0,5 -1,10 -3,15 -7,19 -18,34 -34,46 -13,10 -27,15 -42,15 -4,0 -7,0 -8,0 -1,3 -1,8 -1,14 0,9 2,19 6,28 5,12 13,17 23,17 4,0 8,-1 13,-2 16,-6 29,-17 39,-33zm-44 -84c-13,13 -22,26 -28,39 10,0 20,-4 29,-11 11,-8 19,-18 24,-31 2,-6 3,-10 3,-13 0,-1 0,-1 0,-1l0 0c-7,0 -17,6 -29,17z"/>
   <path id="_6" fill="none" fill-rule="nonzero" stroke="black" stroke-width="8" stroke-miterlimit="22.9256" d="M3018 1715c3,-5 6,-7 11,-7 2,0 4,0 6,1 5,2 7,5 7,9 0,2 -1,4 -2,6 -8,16 -21,29 -38,39 -17,11 -33,16 -49,16 -1,0 -3,0 -4,0 -18,-1 -30,-9 -38,-25 -4,-9 -6,-19 -6,-32 0,-14 2,-31 7,-50 9,-38 22,-62 39,-72 7,-4 14,-6 20,-6 9,0 17,4 24,12 9,11 13,25 14,42l0 1c0,7 -3,12 -10,13 -1,0 -2,0 -3,0 -7,0 -10,-3 -10,-10 -1,-16 -5,-26 -12,-32 -2,-2 -4,-2 -6,-2 -4,0 -9,4 -14,13 -8,13 -15,33 -19,59 -2,12 -3,22 -3,30 0,13 2,22 7,28 4,6 10,9 17,9 6,0 14,-2 23,-7 19,-9 32,-21 40,-35z"/>
   <path id="_7" fill="none" fill-rule="nonzero" stroke="black" stroke-width="8" stroke-miterlimit="22.9256" d="M3096 1596c11,-6 20,-9 29,-9 14,0 27,7 37,21 9,12 14,26 16,42 1,9 2,19 2,28 0,10 -1,20 -3,29 -4,20 -11,37 -21,49 -12,14 -27,22 -45,22l0 0c-11,0 -21,-3 -29,-10 -9,-7 -15,-16 -19,-29 -2,-9 -4,-18 -4,-28 0,-8 1,-16 2,-25 3,-21 9,-39 18,-51 9,-13 20,-20 33,-20 3,0 6,0 9,1 5,1 8,4 8,7 0,2 -1,4 -3,6 -3,3 -7,5 -11,5 -1,0 -2,0 -4,0 0,0 -1,0 -1,0 -5,0 -9,6 -14,17 -8,18 -13,35 -13,51 0,7 1,14 2,20 4,20 13,31 25,32 1,0 2,0 3,0 9,0 17,-4 23,-13 6,-9 11,-21 13,-38 2,-11 2,-21 2,-30 0,-20 -3,-35 -8,-47 -6,-14 -14,-21 -22,-21 -4,0 -8,1 -13,4 -2,1 -5,2 -7,2 -3,0 -5,-1 -8,-2 -4,-2 -5,-4 -5,-7 0,-3 2,-5 6,-7z"/>
   <path id="_8" fill="none" fill-rule="nonzero" stroke="black" stroke-width="8" stroke-miterlimit="22.9256" d="M3333 1525c1,1 1,2 1,4l0 1c0,3 -2,6 -5,8 -2,1 -4,2 -6,2l-1 0c-4,0 -7,-2 -9,-6 -1,-4 -5,-7 -9,-10 -2,-1 -4,-1 -6,-1 -1,0 -2,0 -2,0 -2,0 -5,1 -8,3 -12,7 -18,22 -20,45 -2,24 -3,47 -4,71 2,0 8,-1 16,-2 9,-1 15,-2 18,-2 3,0 5,-1 6,-1l1 0c5,0 9,3 11,8 1,1 1,2 1,4l0 1c0,5 -3,8 -10,9 -6,1 -14,2 -23,2 -11,1 -18,2 -21,2l0 4c0,12 0,24 0,38 0,42 1,92 3,151l0 1c0,8 -4,12 -11,14 -1,0 -2,0 -4,0 -7,0 -10,-5 -11,-14 -2,-44 -3,-87 -3,-129 0,-21 0,-41 1,-62 -2,0 -5,1 -8,1 -4,0 -6,0 -7,1 -1,0 -2,0 -3,0l-1 0c-5,0 -9,-3 -12,-8 0,-1 -1,-2 -1,-4l0 -1c0,-5 3,-8 10,-9 5,-1 11,-1 16,-1l6 -1c0,-12 1,-25 2,-38 1,-9 1,-19 2,-30 1,-13 2,-19 2,-19 1,-10 4,-20 11,-31 7,-11 15,-18 25,-22 4,-1 8,-2 12,-3 1,0 3,0 4,0 16,0 28,8 35,24z"/>
   <path id="_9" fill="none" fill-rule="nonzero" stroke="black" stroke-width="8" stroke-miterlimit="22.9256" d="M3458 1525c1,1 1,2 1,4l0 1c0,3 -2,6 -5,8 -2,1 -4,2 -6,2l-1 0c-4,0 -7,-2 -9,-6 -1,-4 -5,-7 -9,-10 -2,-1 -4,-1 -6,-1 -1,0 -2,0 -2,0 -2,0 -5,1 -8,3 -12,7 -18,22 -20,45 -2,24 -3,47 -4,71 2,0 8,-1 16,-2 9,-1 15,-2 18,-2 3,0 5,-1 6,-1l1 0c5,0 9,3 11,8 1,1 1,2 1,4l0 1c0,5 -3,8 -10,9 -6,1 -14,2 -23,2 -11,1 -18,2 -21,2l0 4c0,12 0,24 0,38 0,42 1,92 3,151l0 1c0,8 -4,12 -11,14 -1,0 -2,0 -4,0 -7,0 -10,-5 -11,-14 -2,-44 -3,-87 -3,-129 0,-21 0,-41 1,-62 -2,0 -5,1 -8,1 -4,0 -6,0 -7,1 -1,0 -2,0 -3,0l-1 0c-5,0 -9,-3 -12,-8 0,-1 -1,-2 -1,-4l0 -1c0,-5 3,-8 10,-9 5,-1 11,-1 16,-1l6 -1c0,-12 1,-25 2,-38 1,-9 1,-19 2,-30 1,-13 2,-19 2,-19 1,-10 4,-20 11,-31 7,-11 15,-18 25,-22 4,-1 8,-2 12,-3 1,0 3,0 4,0 16,0 28,8 35,24z"/>
   <path id="_10" fill="none" fill-rule="nonzero" stroke="black" stroke-width="8" stroke-miterlimit="22.9256" d="M3567 1718c2,-5 6,-7 10,-8 2,0 4,0 6,1 5,2 7,5 7,10 0,2 -1,4 -2,6 -11,22 -28,38 -51,46 -8,3 -16,4 -23,4 -17,0 -31,-8 -41,-25 -8,-13 -12,-28 -12,-43 0,-11 2,-22 6,-33 8,-26 23,-47 44,-64 14,-12 27,-18 39,-18 4,0 7,1 11,2 8,3 13,9 14,18 0,2 0,4 0,5 0,5 -1,10 -3,15 -7,19 -18,34 -34,46 -13,10 -27,15 -42,15 -4,0 -7,0 -8,0 -1,3 -1,8 -1,14 0,9 2,19 6,28 5,12 13,17 23,17 4,0 8,-1 13,-2 16,-6 29,-17 39,-33zm-44 -84c-13,13 -22,26 -28,39 10,0 20,-4 29,-11 11,-8 19,-18 24,-31 2,-6 3,-10 3,-13 0,-1 0,-1 0,-1l0 0c-7,0 -17,6 -29,17z"/>
   <path id="_11" fill="none" fill-rule="nonzero" stroke="black" stroke-width="8" stroke-miterlimit="22.9256" d="M3721 1718c2,-5 6,-7 10,-8 2,0 4,0 6,1 5,2 7,5 7,10 0,2 -1,4 -2,6 -11,22 -28,38 -51,46 -8,3 -16,4 -23,4 -17,0 -31,-8 -41,-25 -8,-13 -12,-28 -12,-43 0,-11 2,-22 6,-33 8,-26 23,-47 44,-64 14,-12 27,-18 39,-18 4,0 7,1 11,2 8,3 13,9 14,18 0,2 0,4 0,5 0,5 -1,10 -3,15 -7,19 -18,34 -34,46 -13,10 -27,15 -42,15 -4,0 -7,0 -8,0 -1,3 -1,8 -1,14 0,9 2,19 6,28 5,12 13,17 23,17 4,0 8,-1 13,-2 16,-6 29,-17 39,-33zm-44 -84c-13,13 -22,26 -28,39 10,0 20,-4 29,-11 11,-8 19,-18 24,-31 2,-6 3,-10 3,-13 0,-1 0,-1 0,-1l0 0c-7,0 -17,6 -29,17z"/>
  </g>
 </g>
</svg>
